<svg width="586" height="585" viewBox="0 0 586 585" fill="none" xmlns="http://www.w3.org/2000/svg">
    <path d="M401.255 157.606V126.586H212.355V405.586H430.355V157.606H401.255Z" fill="#DFEBFA"/>
    <path d="M401.352 126.586V157.586L430.352 157.606L401.352 126.586Z" fill="#A7CCFA"/>
    <path d="M337.173 255.057C337.173 265.977 335.383 274.06 331.803 279.307C328.223 284.554 322.71 287.18 315.263 287.187C308.057 287.187 302.617 284.477 298.943 279.057C295.27 273.637 293.437 265.637 293.443 255.057C293.443 244.017 295.227 235.88 298.793 230.647C302.36 225.414 307.85 222.797 315.263 222.797C322.483 222.797 327.94 225.534 331.633 231.007C335.327 236.48 337.173 244.497 337.173 255.057ZM306.583 255.057C306.583 262.724 307.25 268.22 308.583 271.547C309.903 274.867 312.143 276.547 315.273 276.547C318.403 276.547 320.583 274.867 321.953 271.547C323.323 268.227 324.003 262.707 324.003 255.127C324.003 247.547 323.313 241.937 321.933 238.587C320.553 235.237 318.333 233.587 315.273 233.587C312.213 233.587 309.943 235.267 308.603 238.587C307.263 241.907 306.583 247.377 306.583 255.057V255.057Z" fill="#2575ED"/>
    <path d="M388.943 273.367H381.413V286.367H368.493V273.367H341.793V264.167L369.213 223.777H381.413V263.097H388.943V273.367ZM368.493 263.097V252.487C368.493 250.714 368.563 248.147 368.703 244.787C368.843 241.417 368.963 239.467 369.043 238.927H368.703C367.621 241.307 366.347 243.595 364.893 245.767L353.433 263.097H368.493Z" fill="#2575ED"/>
    <path d="M288.912 273.367H281.382V286.367H268.462V273.367H241.762V264.167L269.192 223.777H281.382V263.097H288.912V273.367ZM268.462 263.097V252.487C268.462 250.714 268.532 248.147 268.672 244.787C268.822 241.417 268.932 239.467 269.022 238.927H268.672C267.597 241.309 266.326 243.597 264.872 245.767L253.402 263.097H268.462Z" fill="#2575ED"/>
    <path d="M234.127 313.204C234.636 313.204 235.058 313.056 235.393 312.76C235.729 312.463 235.908 312.097 235.93 311.661H237.851C237.829 312.226 237.653 312.754 237.323 313.246C236.993 313.733 236.545 314.119 235.981 314.404C235.416 314.689 234.806 314.832 234.152 314.832C232.882 314.832 231.876 314.421 231.132 313.599C230.388 312.777 230.016 311.641 230.016 310.193V309.983C230.016 308.602 230.385 307.497 231.124 306.67C231.862 305.836 232.868 305.42 234.143 305.42C235.223 305.42 236.101 305.736 236.777 306.368C237.46 306.994 237.818 307.819 237.851 308.842H235.93C235.908 308.322 235.729 307.894 235.393 307.559C235.063 307.223 234.641 307.056 234.127 307.056C233.467 307.056 232.958 307.296 232.6 307.777C232.242 308.252 232.06 308.977 232.055 309.95V310.277C232.055 311.261 232.231 311.996 232.583 312.483C232.941 312.964 233.456 313.204 234.127 313.204ZM246.534 307.207H243.589V314.664H241.551V307.207H238.64V305.588H246.534V307.207ZM255.845 310.218C255.845 311.622 255.526 312.743 254.889 313.582C254.251 314.415 253.395 314.832 252.322 314.832C251.326 314.832 250.529 314.505 249.931 313.85V318.154H247.892V305.588H249.772L249.855 306.51C250.454 305.783 251.268 305.42 252.297 305.42C253.404 305.42 254.271 305.834 254.897 306.661C255.529 307.483 255.845 308.627 255.845 310.092V310.218ZM253.815 310.042C253.815 309.136 253.633 308.417 253.27 307.886C252.912 307.355 252.397 307.089 251.726 307.089C250.893 307.089 250.294 307.433 249.931 308.121V312.147C250.3 312.852 250.904 313.204 251.743 313.204C252.392 313.204 252.898 312.944 253.261 312.424C253.63 311.899 253.815 311.104 253.815 310.042ZM263 314.664C262.911 314.491 262.833 314.208 262.766 313.817C262.117 314.493 261.323 314.832 260.383 314.832C259.472 314.832 258.728 314.572 258.152 314.052C257.576 313.532 257.288 312.888 257.288 312.122C257.288 311.155 257.646 310.414 258.362 309.899C259.083 309.379 260.112 309.119 261.449 309.119H262.698V308.524C262.698 308.054 262.567 307.679 262.304 307.399C262.041 307.114 261.642 306.972 261.105 306.972C260.64 306.972 260.26 307.089 259.964 307.324C259.667 307.553 259.519 307.847 259.519 308.205H257.481C257.481 307.707 257.646 307.243 257.976 306.812C258.306 306.376 258.753 306.035 259.318 305.789C259.888 305.543 260.523 305.42 261.222 305.42C262.285 305.42 263.132 305.688 263.764 306.225C264.396 306.756 264.72 307.506 264.737 308.473V312.567C264.737 313.383 264.852 314.035 265.081 314.521V314.664H263ZM260.761 313.196C261.163 313.196 261.541 313.098 261.893 312.902C262.251 312.707 262.52 312.444 262.698 312.114V310.403H261.6C260.845 310.403 260.277 310.534 259.897 310.797C259.516 311.06 259.326 311.432 259.326 311.913C259.326 312.304 259.455 312.617 259.712 312.852C259.975 313.081 260.324 313.196 260.761 313.196ZM274.56 314.664H272.522V310.998H268.99V314.664H266.952V305.588H268.99V309.371H272.522V305.588H274.56V314.664ZM282.403 305.588H284.434V314.664H282.403V308.607L278.847 314.664H276.817V305.588H278.847V311.644L282.403 305.588ZM286.682 305.588H288.72V313.037H292.26V305.588H294.299V313.037H295.532L295.364 317.357H293.51V314.664H286.682V305.588ZM302.394 314.664C302.304 314.491 302.226 314.208 302.159 313.817C301.51 314.493 300.716 314.832 299.776 314.832C298.865 314.832 298.121 314.572 297.545 314.052C296.969 313.532 296.681 312.888 296.681 312.122C296.681 311.155 297.039 310.414 297.755 309.899C298.476 309.379 299.505 309.119 300.842 309.119H302.092V308.524C302.092 308.054 301.96 307.679 301.697 307.399C301.435 307.114 301.035 306.972 300.498 306.972C300.034 306.972 299.653 307.089 299.357 307.324C299.061 307.553 298.912 307.847 298.912 308.205H296.874C296.874 307.707 297.039 307.243 297.369 306.812C297.699 306.376 298.146 306.035 298.711 305.789C299.281 305.543 299.916 305.42 300.615 305.42C301.678 305.42 302.525 305.688 303.157 306.225C303.789 306.756 304.113 307.506 304.13 308.473V312.567C304.13 313.383 304.245 314.035 304.474 314.521V314.664H302.394ZM300.154 313.196C300.557 313.196 300.934 313.098 301.286 312.902C301.644 312.707 301.913 312.444 302.092 312.114V310.403H300.993C300.238 310.403 299.67 310.534 299.29 310.797C298.91 311.06 298.719 311.432 298.719 311.913C298.719 312.304 298.848 312.617 299.105 312.852C299.368 313.081 299.718 313.196 300.154 313.196ZM318.231 314.664H316.193V310.998H312.661V314.664H310.623V305.588H312.661V309.371H316.193V305.588H318.231V314.664ZM324.406 314.832C323.114 314.832 322.065 314.426 321.26 313.615C320.46 312.799 320.06 311.714 320.06 310.361V310.109C320.06 309.203 320.234 308.395 320.58 307.685C320.933 306.969 321.425 306.412 322.057 306.015C322.689 305.618 323.393 305.42 324.171 305.42C325.407 305.42 326.36 305.814 327.031 306.603C327.708 307.391 328.046 308.507 328.046 309.95V310.772H322.115C322.177 311.521 322.426 312.114 322.862 312.55C323.304 312.986 323.857 313.204 324.523 313.204C325.457 313.204 326.218 312.827 326.805 312.072L327.904 313.121C327.54 313.663 327.054 314.085 326.444 314.387C325.84 314.684 325.161 314.832 324.406 314.832ZM324.162 307.056C323.603 307.056 323.15 307.251 322.803 307.643C322.462 308.034 322.244 308.579 322.149 309.279H326.033V309.128C325.988 308.445 325.806 307.931 325.488 307.584C325.169 307.232 324.727 307.056 324.162 307.056ZM341.602 314.664H339.564V310.998H336.032V314.664H333.994V305.588H336.032V309.371H339.564V305.588H341.602V314.664ZM349.202 314.664C349.113 314.491 349.035 314.208 348.968 313.817C348.319 314.493 347.525 314.832 346.585 314.832C345.674 314.832 344.93 314.572 344.354 314.052C343.778 313.532 343.49 312.888 343.49 312.122C343.49 311.155 343.848 310.414 344.564 309.899C345.285 309.379 346.314 309.119 347.651 309.119H348.9V308.524C348.9 308.054 348.769 307.679 348.506 307.399C348.243 307.114 347.844 306.972 347.307 306.972C346.842 306.972 346.462 307.089 346.166 307.324C345.869 307.553 345.721 307.847 345.721 308.205H343.683C343.683 307.707 343.848 307.243 344.178 306.812C344.508 306.376 344.955 306.035 345.52 305.789C346.09 305.543 346.725 305.42 347.424 305.42C348.487 305.42 349.334 305.688 349.966 306.225C350.598 306.756 350.922 307.506 350.939 308.473V312.567C350.939 313.383 351.054 314.035 351.283 314.521V314.664H349.202ZM346.963 313.196C347.365 313.196 347.743 313.098 348.095 312.902C348.453 312.707 348.722 312.444 348.9 312.114V310.403H347.802C347.047 310.403 346.479 310.534 346.099 310.797C345.718 311.06 345.528 311.432 345.528 311.913C345.528 312.304 345.657 312.617 345.914 312.852C346.177 313.081 346.526 313.196 346.963 313.196ZM358.74 305.588H360.77V314.664H358.74V308.607L355.184 314.664H353.154V305.588H355.184V311.644L358.74 305.588ZM359.697 302.106C359.697 302.811 359.451 303.381 358.958 303.818C358.466 304.254 357.809 304.472 356.987 304.472C356.165 304.472 355.508 304.254 355.016 303.818C354.524 303.381 354.278 302.811 354.278 302.106H355.804C355.804 302.475 355.908 302.763 356.115 302.97C356.327 303.172 356.618 303.272 356.987 303.272C357.356 303.272 357.644 303.172 357.851 302.97C358.058 302.763 358.162 302.475 358.162 302.106H359.697ZM362.977 313.037C363.542 312.405 363.919 311.806 364.109 311.241C364.305 310.671 364.422 309.944 364.461 309.06L364.579 305.588H370.879V313.037H372.137V317.365H370.107V314.664H364.285V317.365H362.222L362.23 313.037H362.977ZM365.367 313.037H368.849V307.341H366.559L366.5 309.077C366.422 310.744 366.044 312.064 365.367 313.037ZM377.59 314.832C376.298 314.832 375.249 314.426 374.444 313.615C373.644 312.799 373.244 311.714 373.244 310.361V310.109C373.244 309.203 373.418 308.395 373.764 307.685C374.117 306.969 374.609 306.412 375.241 306.015C375.873 305.618 376.578 305.42 377.355 305.42C378.591 305.42 379.544 305.814 380.215 306.603C380.892 307.391 381.23 308.507 381.23 309.95V310.772H375.3C375.361 311.521 375.61 312.114 376.046 312.55C376.488 312.986 377.042 313.204 377.707 313.204C378.641 313.204 379.402 312.827 379.989 312.072L381.088 313.121C380.724 313.663 380.238 314.085 379.628 314.387C379.024 314.684 378.345 314.832 377.59 314.832ZM377.346 307.056C376.787 307.056 376.334 307.251 375.987 307.643C375.646 308.034 375.428 308.579 375.333 309.279H379.217V309.128C379.172 308.445 378.991 307.931 378.672 307.584C378.353 307.232 377.911 307.056 377.346 307.056ZM390.508 314.664H388.47V310.998H384.938V314.664H382.9V305.588H384.938V309.371H388.47V305.588H390.508V314.664ZM398.108 314.664C398.019 314.491 397.941 314.208 397.874 313.817C397.225 314.493 396.431 314.832 395.491 314.832C394.58 314.832 393.836 314.572 393.26 314.052C392.684 313.532 392.396 312.888 392.396 312.122C392.396 311.155 392.754 310.414 393.469 309.899C394.191 309.379 395.22 309.119 396.557 309.119H397.806V308.524C397.806 308.054 397.675 307.679 397.412 307.399C397.149 307.114 396.749 306.972 396.213 306.972C395.748 306.972 395.368 307.089 395.072 307.324C394.775 307.553 394.627 307.847 394.627 308.205H392.589C392.589 307.707 392.754 307.243 393.084 306.812C393.414 306.376 393.861 306.035 394.426 305.789C394.996 305.543 395.631 305.42 396.33 305.42C397.393 305.42 398.24 305.688 398.872 306.225C399.504 306.756 399.828 307.506 399.845 308.473V312.567C399.845 313.383 399.96 314.035 400.189 314.521V314.664H398.108ZM395.869 313.196C396.271 313.196 396.649 313.098 397.001 312.902C397.359 312.707 397.627 312.444 397.806 312.114V310.403H396.708C395.953 310.403 395.385 310.534 395.005 310.797C394.624 311.06 394.434 311.432 394.434 311.913C394.434 312.304 394.563 312.617 394.82 312.852C395.083 313.081 395.432 313.196 395.869 313.196Z" fill="#2E2E2E"/>
    <path d="M453.555 265.699C453.325 283.02 449.686 300.126 442.845 316.041C436.003 331.955 426.094 346.366 413.684 358.451C401.273 370.536 386.603 380.057 370.512 386.472C354.421 392.887 337.224 396.07 319.903 395.839V395.839C302.583 395.61 285.477 391.972 269.562 385.132C253.648 378.292 239.237 368.384 227.152 355.974C215.067 343.564 205.545 328.895 199.13 312.804C192.714 296.714 189.532 279.517 189.763 262.197V262.197C189.992 244.875 193.63 227.769 200.471 211.854C207.312 195.939 217.22 181.527 229.631 169.442C242.043 157.357 256.713 147.835 272.804 141.421C288.896 135.006 306.093 131.824 323.415 132.057V132.057C340.735 132.285 357.841 135.924 373.756 142.764C389.67 149.604 404.081 159.512 416.166 171.922C428.251 184.332 437.773 199.001 444.188 215.091C450.603 231.182 453.786 248.378 453.555 265.699V265.699ZM438.698 265.501C439.072 234.477 427.129 204.571 405.486 182.341C383.843 160.111 354.267 147.371 323.245 146.915V146.915C292.223 146.538 262.318 158.48 240.089 180.122C217.86 201.764 205.122 231.338 204.669 262.359V262.359C204.289 293.382 216.231 323.288 237.873 345.518C259.515 367.747 289.092 380.484 320.113 380.935V380.935C351.135 381.314 381.04 369.375 403.271 347.735C425.502 326.095 438.242 296.521 438.698 265.501Z" fill="#A7CCFA"/>
    <path d="M231.537 339.93L245.679 354.072L146.684 453.067C142.779 456.972 136.447 456.972 132.542 453.067V453.067C128.637 449.162 128.637 442.83 132.542 438.925L231.537 339.93Z" fill="#A7CCFA"/>
    <path d="M215.686 327.496L258.112 369.922L244.677 383.358C242.724 385.31 239.558 385.31 237.606 383.358L202.251 348.002C200.298 346.05 200.298 342.884 202.251 340.931L215.686 327.496Z" fill="#A7CCFA"/>
    </svg>
    