<svg width="167" height="69" viewBox="0 0 167 69" fill="none" xmlns="http://www.w3.org/2000/svg">
<rect x="1.07251" y="1.23438" width="165" height="67" fill="white" stroke="#DADADA"/>
<path d="M59.9797 41.2344H58.345V30.3975L55.0667 31.6016V30.125L59.7249 28.376H59.9797V41.2344Z" fill="#9E9E9E"/>
<path d="M71.1243 28.4287V29.8086H70.8254C69.5598 29.832 68.552 30.207 67.802 30.9336C67.052 31.6602 66.6184 32.6826 66.5012 34.001C67.175 33.2275 68.095 32.8408 69.261 32.8408C70.3743 32.8408 71.262 33.2334 71.9241 34.0186C72.592 34.8037 72.926 35.8174 72.926 37.0596C72.926 38.3779 72.5657 39.4326 71.845 40.2236C71.1301 41.0146 70.1692 41.4102 68.9622 41.4102C67.7375 41.4102 66.7444 40.9414 65.9827 40.0039C65.2209 39.0605 64.8401 37.8477 64.8401 36.3652V35.7412C64.8401 33.3857 65.3411 31.5869 66.343 30.3447C67.3508 29.0967 68.8479 28.458 70.8342 28.4287H71.1243ZM68.9885 34.1943C68.4319 34.1943 67.9192 34.3613 67.4504 34.6953C66.9817 35.0293 66.6565 35.4482 66.4749 35.9521V36.5498C66.4749 37.6045 66.7122 38.4541 67.1868 39.0986C67.6614 39.7432 68.2532 40.0654 68.9622 40.0654C69.6946 40.0654 70.2688 39.7959 70.6848 39.2568C71.1067 38.7178 71.3176 38.0117 71.3176 37.1387C71.3176 36.2598 71.1038 35.5508 70.676 35.0117C70.2542 34.4668 69.6917 34.1943 68.9885 34.1943Z" fill="#9E9E9E"/>
<path d="M81.2317 28.4287V29.8086H80.9329C79.6672 29.832 78.6594 30.207 77.9094 30.9336C77.1594 31.6602 76.7258 32.6826 76.6086 34.001C77.2825 33.2275 78.2024 32.8408 79.3684 32.8408C80.4817 32.8408 81.3694 33.2334 82.0315 34.0186C82.6995 34.8037 83.0334 35.8174 83.0334 37.0596C83.0334 38.3779 82.6731 39.4326 81.9524 40.2236C81.2375 41.0146 80.2766 41.4102 79.0696 41.4102C77.845 41.4102 76.8518 40.9414 76.0901 40.0039C75.3284 39.0605 74.9475 37.8477 74.9475 36.3652V35.7412C74.9475 33.3857 75.4485 31.5869 76.4504 30.3447C77.4583 29.0967 78.9553 28.458 80.9417 28.4287H81.2317ZM79.0959 34.1943C78.5393 34.1943 78.0266 34.3613 77.5579 34.6953C77.0891 35.0293 76.7639 35.4482 76.5823 35.9521V36.5498C76.5823 37.6045 76.8196 38.4541 77.2942 39.0986C77.7688 39.7432 78.3606 40.0654 79.0696 40.0654C79.802 40.0654 80.3762 39.7959 80.7922 39.2568C81.2141 38.7178 81.425 38.0117 81.425 37.1387C81.425 36.2598 81.2112 35.5508 80.7834 35.0117C80.3616 34.4668 79.7991 34.1943 79.0959 34.1943Z" fill="#9E9E9E"/>
<path d="M88.3157 35.1963L90.425 31.7246H92.3235L89.2122 36.4268L92.4202 41.2344H90.5393L88.342 37.6748L86.1448 41.2344H84.2551L87.4631 36.4268L84.3518 31.7246H86.2327L88.3157 35.1963Z" fill="#9E9E9E"/>
<path d="M100.269 28.4287V29.8086H99.97C98.7043 29.832 97.6965 30.207 96.9465 30.9336C96.1965 31.6602 95.7629 32.6826 95.6458 34.001C96.3196 33.2275 97.2395 32.8408 98.4055 32.8408C99.5188 32.8408 100.406 33.2334 101.069 34.0186C101.737 34.8037 102.071 35.8174 102.071 37.0596C102.071 38.3779 101.71 39.4326 100.99 40.2236C100.275 41.0146 99.3137 41.4102 98.1067 41.4102C96.8821 41.4102 95.8889 40.9414 95.1272 40.0039C94.3655 39.0605 93.9846 37.8477 93.9846 36.3652V35.7412C93.9846 33.3857 94.4856 31.5869 95.4875 30.3447C96.4954 29.0967 97.9924 28.458 99.9788 28.4287H100.269ZM98.1331 34.1943C97.5764 34.1943 97.0637 34.3613 96.595 34.6953C96.1262 35.0293 95.801 35.4482 95.6194 35.9521V36.5498C95.6194 37.6045 95.8567 38.4541 96.3313 39.0986C96.8059 39.7432 97.3977 40.0654 98.1067 40.0654C98.8391 40.0654 99.4133 39.7959 99.8293 39.2568C100.251 38.7178 100.462 38.0117 100.462 37.1387C100.462 36.2598 100.248 35.5508 99.8206 35.0117C99.3987 34.4668 98.8362 34.1943 98.1331 34.1943Z" fill="#9E9E9E"/>
<path d="M111.756 31.7773C111.756 32.416 111.586 32.9844 111.246 33.4824C110.912 33.9805 110.458 34.3701 109.884 34.6514C110.552 34.9385 111.079 35.3574 111.466 35.9082C111.859 36.459 112.055 37.083 112.055 37.7803C112.055 38.8877 111.68 39.7695 110.93 40.4258C110.186 41.082 109.204 41.4102 107.986 41.4102C106.755 41.4102 105.768 41.082 105.024 40.4258C104.285 39.7637 103.916 38.8818 103.916 37.7803C103.916 37.0889 104.104 36.4648 104.479 35.9082C104.86 35.3516 105.384 34.9297 106.052 34.6426C105.484 34.3613 105.035 33.9717 104.707 33.4736C104.379 32.9756 104.215 32.4102 104.215 31.7773C104.215 30.6992 104.561 29.8438 105.252 29.2109C105.944 28.5781 106.855 28.2617 107.986 28.2617C109.111 28.2617 110.019 28.5781 110.71 29.2109C111.407 29.8438 111.756 30.6992 111.756 31.7773ZM110.429 37.7451C110.429 37.0303 110.2 36.4473 109.743 35.9961C109.292 35.5449 108.7 35.3193 107.968 35.3193C107.236 35.3193 106.647 35.542 106.201 35.9873C105.762 36.4326 105.542 37.0186 105.542 37.7451C105.542 38.4717 105.756 39.043 106.184 39.459C106.617 39.875 107.218 40.083 107.986 40.083C108.747 40.083 109.345 39.875 109.779 39.459C110.212 39.0371 110.429 38.4658 110.429 37.7451ZM107.986 29.5977C107.347 29.5977 106.828 29.7969 106.43 30.1953C106.037 30.5879 105.841 31.124 105.841 31.8037C105.841 32.4541 106.034 32.9814 106.421 33.3857C106.814 33.7842 107.335 33.9834 107.986 33.9834C108.636 33.9834 109.155 33.7842 109.541 33.3857C109.934 32.9814 110.13 32.4541 110.13 31.8037C110.13 31.1533 109.928 30.623 109.524 30.2129C109.119 29.8027 108.607 29.5977 107.986 29.5977Z" fill="#9E9E9E"/>
</svg>
