<svg width="69" height="69" viewBox="0 0 69 69" fill="none" xmlns="http://www.w3.org/2000/svg">
<circle cx="34.814" cy="34.5781" r="34" fill="#D4E3F6"/>
<g clip-path="url(#clip0)">
<path d="M34.3907 33.7095C37.0378 33.7095 39.33 32.7601 41.2029 30.887C43.0757 29.0141 44.0251 26.7225 44.0251 24.0752C44.0251 21.4287 43.0757 19.1368 41.2026 17.2634C39.3294 15.3908 37.0375 14.4414 34.3907 14.4414C31.7433 14.4414 29.4518 15.3908 27.5789 17.2637C25.7061 19.1365 24.7563 21.4284 24.7563 24.0752C24.7563 26.7225 25.7061 29.0144 27.5792 30.8873C29.4524 32.7598 31.7443 33.7095 34.3907 33.7095Z" fill="#2575ED"/>
<path d="M51.2484 45.1981C51.1943 44.4187 51.0851 43.5685 50.9243 42.6707C50.7619 41.7661 50.5529 40.911 50.3026 40.1295C50.0441 39.3217 49.6926 38.524 49.258 37.7595C48.8069 36.9661 48.2772 36.2751 47.6827 35.7066C47.061 35.1118 46.2999 34.6336 45.4198 34.2848C44.5427 33.9378 43.5707 33.762 42.531 33.762C42.1227 33.762 41.7278 33.9296 40.9651 34.4261C40.4958 34.7322 39.9468 35.0862 39.334 35.4777C38.81 35.8116 38.1002 36.1244 37.2234 36.4076C36.368 36.6844 35.4995 36.8248 34.6422 36.8248C33.785 36.8248 32.9167 36.6844 32.0604 36.4076C31.1846 36.1247 30.4747 35.8119 29.9514 35.478C29.3444 35.0901 28.795 34.7361 28.3187 34.4258C27.5569 33.9293 27.1617 33.7617 26.7534 33.7617C25.7134 33.7617 24.7417 33.9378 23.8649 34.2851C22.9854 34.6333 22.224 35.1115 21.6017 35.7069C21.0076 36.2757 20.4775 36.9664 20.027 37.7595C19.5928 38.524 19.2412 39.3214 18.9824 40.1298C18.7325 40.9113 18.5234 41.7661 18.3611 42.6707C18.2003 43.5673 18.091 44.4178 18.037 45.1991C17.9839 45.9644 17.957 46.7588 17.957 47.5611C17.957 49.6491 18.6208 51.3395 19.9297 52.5861C21.2224 53.8163 22.9329 54.4403 25.013 54.4403H44.2733C46.3533 54.4403 48.0632 53.8166 49.3563 52.5861C50.6655 51.3404 51.3292 49.6497 51.3292 47.5608C51.3289 46.7548 51.3018 45.9599 51.2484 45.1981Z" fill="#2575ED"/>
</g>
<defs>
<clipPath id="clip0">
<rect width="40" height="40" fill="white" transform="translate(14.6758 14.4414)"/>
</clipPath>
</defs>
</svg>
