<svg width="15" height="15" viewBox="0 0 15 15" fill="none" xmlns="http://www.w3.org/2000/svg">
<g clip-path="url(#clip0)">
<path d="M14.9081 6.88455C14.783 6.71346 11.803 2.69531 7.997 2.69531C4.19099 2.69531 1.21084 6.71346 1.08591 6.88438C0.967457 7.0467 0.967457 7.26684 1.08591 7.42915C1.21084 7.60024 4.19099 11.6184 7.997 11.6184C11.803 11.6184 14.783 7.60022 14.9081 7.42929C15.0267 7.267 15.0267 7.0467 14.9081 6.88455ZM7.997 10.6953C5.19347 10.6953 2.76531 8.02839 2.04653 7.15654C2.76438 6.28391 5.18745 3.61838 7.997 3.61838C10.8004 3.61838 13.2284 6.28484 13.9475 7.15716C13.2296 8.02976 10.8066 10.6953 7.997 10.6953Z" fill="#9E9E9E"/>
<path d="M7.99678 4.38672C6.46985 4.38672 5.22754 5.62903 5.22754 7.15596C5.22754 8.68289 6.46985 9.92521 7.99678 9.92521C9.52371 9.92521 10.766 8.68289 10.766 7.15596C10.766 5.62903 9.52371 4.38672 7.99678 4.38672ZM7.99678 9.00211C6.97877 9.00211 6.15064 8.17394 6.15064 7.15596C6.15064 6.13798 6.9788 5.30982 7.99678 5.30982C9.01476 5.30982 9.84292 6.13798 9.84292 7.15596C9.84292 8.17394 9.01479 9.00211 7.99678 9.00211Z" fill="#9E9E9E"/>
</g>
<defs>
<clipPath id="clip0">
<rect width="14" height="14" fill="white" transform="translate(0.99707 0.15625)"/>
</clipPath>
</defs>
</svg>
