<svg width="14" height="13" viewBox="0 0 26 24" fill="none" xmlns="http://www.w3.org/2000/svg">
    <path d="M25.2394 12L22.3835 8.82932L22.8307 4.58451L18.6547 3.70048L16.5245 0L12.6258 1.74245L12.0996 12L12.6258 22.2575L16.5246 24L18.6547 20.2996L22.8307 19.4155L22.3835 15.1707L25.2394 12Z" fill="#2575ED" />
    <path d="M8.72649 0L6.59639 3.70048L2.4204 4.58456L2.86754 8.82932L0.0117188 12L2.86754 15.1707L2.4204 19.4155L6.59639 20.2996L8.72654 24L12.6253 22.2575V1.74245L8.72649 0Z" fill="#2575ED" />
    <path d="M18.2931 9.81052L12.3044 15.7988C11.8609 16.2424 11.1415 16.2424 10.6976 15.7988L7.60617 12.7072C7.16253 12.2636 7.16253 11.5442 7.60617 11.1005C8.0499 10.6568 8.76922 10.6568 9.21275 11.1003L11.5012 13.3888L16.6863 8.20376C17.13 7.76004 17.8494 7.76037 18.2929 8.20376C18.7365 8.6474 18.7365 9.36662 18.2931 9.81052Z" fill="#D4E3F6" />
</svg>
    