<svg width="20" height="21" viewBox="0 0 20 21" fill="none" xmlns="http://www.w3.org/2000/svg">
<path d="M1.66675 10.5C1.66675 7.35731 1.66675 5.78597 2.64306 4.80965C3.61937 3.83334 5.19072 3.83334 8.33342 3.83334H11.6667C14.8094 3.83334 16.3808 3.83334 17.3571 4.80965C18.3334 5.78597 18.3334 7.35731 18.3334 10.5V12.1667C18.3334 15.3094 18.3334 16.8807 17.3571 17.857C16.3808 18.8333 14.8094 18.8333 11.6667 18.8333H8.33341C5.19072 18.8333 3.61937 18.8333 2.64306 17.857C1.66675 16.8807 1.66675 15.3094 1.66675 12.1667V10.5Z" stroke="#6D7885" stroke-width="1.5"/>
<path d="M5.83325 3.83334V2.58334" stroke="#6D7885" stroke-width="1.5" stroke-linecap="round"/>
<path d="M14.1667 3.83334V2.58334" stroke="#6D7885" stroke-width="1.5" stroke-linecap="round"/>
<path d="M2.08325 8H17.9166" stroke="#6D7885" stroke-width="1.5" stroke-linecap="round"/>
<path d="M14.9999 14.6667C14.9999 15.1269 14.6268 15.5 14.1666 15.5C13.7063 15.5 13.3333 15.1269 13.3333 14.6667C13.3333 14.2064 13.7063 13.8333 14.1666 13.8333C14.6268 13.8333 14.9999 14.2064 14.9999 14.6667Z" fill="#6D7885"/>
<path d="M14.9999 11.3333C14.9999 11.7936 14.6268 12.1667 14.1666 12.1667C13.7063 12.1667 13.3333 11.7936 13.3333 11.3333C13.3333 10.8731 13.7063 10.5 14.1666 10.5C14.6268 10.5 14.9999 10.8731 14.9999 11.3333Z" fill="#6D7885"/>
<path d="M10.8334 14.6667C10.8334 15.1269 10.4603 15.5 10.0001 15.5C9.53984 15.5 9.16675 15.1269 9.16675 14.6667C9.16675 14.2064 9.53984 13.8333 10.0001 13.8333C10.4603 13.8333 10.8334 14.2064 10.8334 14.6667Z" fill="#6D7885"/>
<path d="M10.8334 11.3333C10.8334 11.7936 10.4603 12.1667 10.0001 12.1667C9.53984 12.1667 9.16675 11.7936 9.16675 11.3333C9.16675 10.8731 9.53984 10.5 10.0001 10.5C10.4603 10.5 10.8334 10.8731 10.8334 11.3333Z" fill="#6D7885"/>
<path d="M6.66667 14.6667C6.66667 15.1269 6.29357 15.5 5.83333 15.5C5.3731 15.5 5 15.1269 5 14.6667C5 14.2064 5.3731 13.8333 5.83333 13.8333C6.29357 13.8333 6.66667 14.2064 6.66667 14.6667Z" fill="#6D7885"/>
<path d="M6.66667 11.3333C6.66667 11.7936 6.29357 12.1667 5.83333 12.1667C5.3731 12.1667 5 11.7936 5 11.3333C5 10.8731 5.3731 10.5 5.83333 10.5C6.29357 10.5 6.66667 10.8731 6.66667 11.3333Z" fill="#6D7885"/>
</svg>
