<svg width="34" height="34" viewBox="0 0 34 34" fill="none" xmlns="http://www.w3.org/2000/svg">
<path d="M14.4561 9.67258C14.2945 9.83415 14.209 10.0407 14.1913 10.2517L14.1793 10.2518L14.1615 20.5423C14.1614 21.7104 14.4917 22.5196 15.3019 23.3359C15.938 23.972 16.7453 24.3092 17.5748 24.2855C18.4314 24.2608 19.2633 23.8687 19.9806 23.1511L19.9957 23.1361C20.7391 22.386 21.144 21.3934 21.136 20.3425L21.1374 8.38286C21.1373 5.35327 19.018 3.15456 16.0981 3.15442C14.6499 3.15448 13.2871 3.71977 12.2605 4.74629C11.2341 5.77278 10.669 7.13537 10.6696 8.58305L10.6685 23.5629C10.6685 27.3821 13.7759 30.4895 17.5951 30.4895C19.442 30.4892 21.1802 29.7678 22.4897 28.4582C23.7993 27.1487 24.5208 25.4104 24.5213 23.563L24.4939 8.02665C24.4939 8.02665 24.4968 7.68776 24.2135 7.40441C23.8504 7.04137 23.2617 7.04138 22.8986 7.40442C22.7261 7.57694 22.6382 7.80078 22.6297 8.0269L22.6257 8.0269L22.6532 23.5635C22.6528 24.9121 22.1258 26.1816 21.1694 27.1381C20.2129 28.0946 18.9435 28.6214 17.5951 28.6216C14.8054 28.621 12.5362 26.3518 12.5366 23.563L12.5378 8.5833C12.5378 7.63402 12.9085 6.74057 13.5817 6.06742C14.2549 5.39424 15.1488 5.02319 16.0984 5.02269C17.0458 5.02269 17.8467 5.34733 18.4148 5.96159C18.9738 6.5662 19.2694 7.40338 19.2694 8.3828L19.2681 20.3676C19.2685 20.9159 19.0559 21.4319 18.67 21.8198C17.934 22.5557 17.0852 22.4771 16.6278 22.0196C16.2428 21.6316 16.0302 21.1159 16.0298 20.5676L16.0476 10.2519L16.0358 10.252C16.0181 10.0409 15.9326 9.83435 15.771 9.67275C15.4078 9.30938 14.8191 9.30954 14.4561 9.67258Z" fill="#2575ED"/>
</svg>
