<svg width="24" height="25" viewBox="0 0 24 25" fill="none" xmlns="http://www.w3.org/2000/svg">
<path d="M14.1225 12.1873L23.5602 2.74955C24.1466 2.16369 24.1466 1.21312 23.5602 0.627266C22.9739 0.0409115 22.0243 0.0409115 21.438 0.627266L12.0002 10.065L2.56205 0.627266C1.97569 0.0409115 1.02612 0.0409115 0.439766 0.627266C-0.146589 1.21312 -0.146589 2.16369 0.439766 2.74955L9.87797 12.1873L0.439766 21.625C-0.146589 22.2108 -0.146589 23.1614 0.439766 23.7472C0.732943 24.0399 1.11717 24.1865 1.50091 24.1865C1.88464 24.1865 2.26887 24.0399 2.56205 23.7467L12.0002 14.309L21.438 23.7467C21.7311 24.0399 22.1154 24.1865 22.4991 24.1865C22.8828 24.1865 23.2671 24.0399 23.5602 23.7467C24.1466 23.1609 24.1466 22.2103 23.5602 21.6245L14.1225 12.1873Z" fill="#2575ED"/>
</svg>
