<svg width="15" height="15" viewBox="0 0 15 15" fill="none" xmlns="http://www.w3.org/2000/svg">
<path d="M8.93834 7.31626L14.4437 1.81093C14.7857 1.46919 14.7857 0.914684 14.4437 0.572936C14.1016 0.230896 13.5477 0.230896 13.2057 0.572936L7.70034 6.07826L2.19472 0.572936C1.85268 0.230896 1.29877 0.230896 0.956725 0.572936C0.614685 0.914684 0.614685 1.46919 0.956725 1.81093L6.46234 7.31626L0.956725 12.8216C0.614685 13.1633 0.614685 13.7178 0.956725 14.0596C1.12775 14.2303 1.35188 14.3158 1.57572 14.3158C1.79957 14.3158 2.0237 14.2303 2.19472 14.0593L7.70034 8.55397L13.2057 14.0593C13.3767 14.2303 13.6008 14.3158 13.8247 14.3158C14.0485 14.3158 14.2726 14.2303 14.4437 14.0593C14.7857 13.7175 14.7857 13.163 14.4437 12.8213L8.93834 7.31626Z" fill="#2575ED"/>
</svg>
