<svg width="26" height="26" viewBox="0 0 26 26" fill="none" xmlns="http://www.w3.org/2000/svg">
<path fill-rule="evenodd" clip-rule="evenodd" d="M16.25 1.35413H11.8555C9.86465 1.35411 8.28771 1.3541 7.05356 1.52002C5.78344 1.69079 4.75541 2.05058 3.94468 2.86131C3.13395 3.67203 2.77416 4.70006 2.6034 5.97018C2.43747 7.20433 2.43748 8.78126 2.4375 10.7722V17.3333C2.4375 19.3616 3.92389 21.0427 5.86681 21.3467C6.01627 22.1744 6.30232 22.8809 6.87738 23.4559C7.52946 24.108 8.35049 24.3885 9.3256 24.5196C10.2648 24.6458 11.459 24.6458 12.9406 24.6458H16.3094C17.791 24.6458 18.9852 24.6458 19.9244 24.5196C20.8995 24.3885 21.7205 24.108 22.3726 23.4559C23.0247 22.8038 23.3052 21.9828 23.4363 21.0077C23.5625 20.0685 23.5625 18.8743 23.5625 17.3927V11.8572C23.5625 10.3756 23.5625 9.18145 23.4363 8.24223C23.3052 7.26711 23.0247 6.44608 22.3726 5.79401C21.7976 5.21895 21.0911 4.9329 20.2634 4.78343C19.9594 2.84052 18.2783 1.35413 16.25 1.35413ZM18.5568 4.62706C18.2287 3.66838 17.3199 2.97913 16.25 2.97913H11.9167C9.85095 2.97913 8.38339 2.98085 7.27009 3.13053C6.18016 3.27707 5.55221 3.55188 5.09373 4.01035C4.63525 4.46883 4.36044 5.09678 4.21391 6.18671C4.06423 7.30001 4.0625 8.76757 4.0625 10.8333V17.3333C4.0625 18.4031 4.75175 19.312 5.71043 19.6401C5.68748 18.9793 5.68749 18.2321 5.6875 17.3927V11.8572C5.68748 10.3756 5.68746 9.18144 5.81373 8.24223C5.94484 7.26711 6.2253 6.44608 6.87738 5.79401C7.52946 5.14193 8.35049 4.86146 9.3256 4.73036C10.2648 4.60409 11.459 4.6041 12.9406 4.60413H16.3095C17.1488 4.60411 17.896 4.6041 18.5568 4.62706ZM8.02643 6.94305C8.32626 6.64323 8.74721 6.44774 9.54213 6.34087C10.3604 6.23085 11.445 6.22913 13 6.22913H16.25C17.805 6.22913 18.8896 6.23085 19.7079 6.34087C20.5028 6.44774 20.9237 6.64323 21.2236 6.94305C21.5234 7.24288 21.7189 7.66383 21.8258 8.45876C21.9358 9.27705 21.9375 10.3616 21.9375 11.9166V17.3333C21.9375 18.8883 21.9358 19.9729 21.8258 20.7912C21.7189 21.5861 21.5234 22.007 21.2236 22.3069C20.9237 22.6067 20.5028 22.8022 19.7079 22.909C18.8896 23.0191 17.805 23.0208 16.25 23.0208H13C11.445 23.0208 10.3604 23.0191 9.54213 22.909C8.74721 22.8022 8.32626 22.6067 8.02643 22.3069C7.7266 22.007 7.53112 21.5861 7.42424 20.7912C7.31423 19.9729 7.3125 18.8883 7.3125 17.3333V11.9166C7.3125 10.3616 7.31423 9.27705 7.42424 8.45876C7.53112 7.66383 7.7266 7.24288 8.02643 6.94305Z" fill="#6D7885"/>
</svg>
