<svg width="11" height="11" viewBox="0 0 11 11" fill="none" xmlns="http://www.w3.org/2000/svg">
<path d="M6.42418 5.94542L10.3567 2.01288C10.601 1.76876 10.601 1.37267 10.3567 1.12856C10.1124 0.884231 9.71673 0.884231 9.4724 1.12856L5.53986 5.0611L1.60712 1.12856C1.36279 0.884231 0.967119 0.884231 0.722794 1.12856C0.47847 1.37267 0.47847 1.76876 0.722794 2.01288L4.65554 5.94542L0.722794 9.87796C0.47847 10.1221 0.47847 10.5182 0.722794 10.7623C0.844956 10.8842 1.00506 10.9453 1.16495 10.9453C1.32485 10.9453 1.48495 10.8842 1.60712 10.7621L5.53986 6.82953L9.4724 10.7621C9.59456 10.8842 9.75467 10.9453 9.91456 10.9453C10.0745 10.9453 10.2346 10.8842 10.3567 10.7621C10.601 10.518 10.601 10.1219 10.3567 9.87775L6.42418 5.94542Z" fill="#2575ED"/>
</svg>
