<svg width="15" height="15" viewBox="0 0 15 15" fill="none" xmlns="http://www.w3.org/2000/svg">
    <g clip-path="url(#clip0)">
    <path d="M14.7059 6.84939C14.5809 6.6783 11.6009 2.66016 7.79485 2.66016C3.98884 2.66016 1.0087 6.6783 0.883762 6.84923C0.765309 7.01154 0.765309 7.23168 0.883762 7.394C1.0087 7.56509 3.98884 11.5832 7.79485 11.5832C11.6009 11.5832 14.5809 7.56506 14.7059 7.39413C14.8246 7.23185 14.8246 7.01154 14.7059 6.84939ZM7.79485 10.6602C4.99132 10.6602 2.56316 7.99324 1.84438 7.12138C2.56223 6.24876 4.9853 3.58323 7.79485 3.58323C10.5982 3.58323 13.0262 6.24969 13.7453 7.12201C13.0275 7.9946 10.6044 10.6602 7.79485 10.6602Z" fill="#9E9E9E"/>
    <path d="M7.79512 4.35156C6.26819 4.35156 5.02588 5.59387 5.02588 7.12081C5.02588 8.64774 6.26819 9.89005 7.79512 9.89005C9.32205 9.89005 10.5644 8.64774 10.5644 7.12081C10.5644 5.59387 9.32205 4.35156 7.79512 4.35156ZM7.79512 8.96695C6.77711 8.96695 5.94898 8.13879 5.94898 7.12081C5.94898 6.10282 6.77714 5.27466 7.79512 5.27466C8.8131 5.27466 9.64126 6.10282 9.64126 7.12081C9.64126 8.13879 8.81313 8.96695 7.79512 8.96695Z" fill="#9E9E9E"/>
    </g>
    <defs>
    <clipPath id="clip0">
    <rect width="14" height="14" fill="white" transform="translate(0.794922 0.121094)"/>
    </clipPath>
    </defs>
    </svg>
    