<svg width="35" height="35" viewBox="0 0 35 35" fill="none" xmlns="http://www.w3.org/2000/svg">
    <g filter="url(#filter0_d)">
    <circle cx="17.9346" cy="16.1172" r="15" fill="white"/>
    </g>
    <path d="M24.2393 14.3716L24.2392 14.3715L20.1978 13.9887L19.8968 13.9602L19.7822 13.6803L18.1854 9.7791C18.1853 9.77897 18.1853 9.77884 18.1852 9.77871C18.1403 9.66999 18.0484 9.61719 17.9629 9.61719C17.877 9.61719 17.7855 9.67026 17.7415 9.77806L17.7414 9.7783L16.1442 13.6803L16.0297 13.9602L15.7286 13.9887L11.6874 14.3715C11.6873 14.3715 11.6873 14.3715 11.6873 14.3715C11.6018 14.3797 11.5127 14.4425 11.4767 14.5563C11.4409 14.672 11.4771 14.793 11.5541 14.8635C11.5541 14.8635 11.5541 14.8635 11.5541 14.8635L14.6091 17.6588L14.8213 17.8529L14.7601 18.134L13.8595 22.2733C13.8594 22.2734 13.8594 22.2735 13.8594 22.2736C13.8333 22.3949 13.8809 22.5095 13.9612 22.5701L13.9622 22.5709C14.0046 22.603 14.0512 22.6172 14.0965 22.6172C14.1352 22.6172 14.1753 22.6066 14.2132 22.583L14.2133 22.5829L17.6982 20.4085L17.9629 20.2433L18.2276 20.4085L21.7117 22.5828C21.7908 22.6321 21.8872 22.6286 21.9641 22.5704L21.9646 22.5701C22.0449 22.5095 22.0925 22.395 22.0664 22.2737C22.0664 22.2736 22.0664 22.2735 22.0663 22.2733L21.1657 18.134L21.1045 17.8529L21.3167 17.6588L24.3716 14.8636L24.2393 14.3716ZM24.2393 14.3716C24.3245 14.3796 24.4135 14.4422 24.4489 14.5557M24.2393 14.3716L24.4489 14.5557M24.4489 14.5557C24.485 14.6723 24.4488 14.7928 24.3717 14.8635L24.4489 14.5557Z" stroke="#2575ED"/>
    <defs>
    <filter id="filter0_d" x="0.93457" y="0.117188" width="34" height="34" filterUnits="userSpaceOnUse" color-interpolation-filters="sRGB">
    <feFlood flood-opacity="0" result="BackgroundImageFix"/>
    <feColorMatrix in="SourceAlpha" type="matrix" values="0 0 0 0 0 0 0 0 0 0 0 0 0 0 0 0 0 0 127 0" result="hardAlpha"/>
    <feOffset dy="1"/>
    <feGaussianBlur stdDeviation="1"/>
    <feColorMatrix type="matrix" values="0 0 0 0 0 0 0 0 0 0 0 0 0 0 0 0 0 0 0.15 0"/>
    <feBlend mode="normal" in2="BackgroundImageFix" result="effect1_dropShadow"/>
    <feBlend mode="normal" in="SourceGraphic" in2="effect1_dropShadow" result="shape"/>
    </filter>
    </defs>
    </svg>
    