<svg width="32" height="32" viewBox="0 0 32 32" fill="none" xmlns="http://www.w3.org/2000/svg">
<path fill-rule="evenodd" clip-rule="evenodd" d="M5.25 22.052V21.948C5.24997 21.0495 5.24995 20.3003 5.32991 19.7055C5.41432 19.0777 5.59999 18.5109 6.05546 18.0555C6.51093 17.6 7.07773 17.4143 7.70552 17.3299C8.30031 17.2499 9.04953 17.25 9.94801 17.25H22.052C22.9505 17.25 23.6997 17.2499 24.2945 17.3299C24.9223 17.4143 25.4891 17.6 25.9445 18.0555C26.4 18.5109 26.5857 19.0777 26.6701 19.7055C26.7501 20.3003 26.75 21.0495 26.75 21.948V22.052C26.75 22.9505 26.7501 23.6997 26.6701 24.2945C26.5857 24.9223 26.4 25.4891 25.9445 25.9445C25.4891 26.4 24.9223 26.5857 24.2945 26.6701C23.6997 26.7501 22.9505 26.75 22.052 26.75H9.948C9.04952 26.75 8.3003 26.7501 7.70552 26.6701C7.07773 26.5857 6.51093 26.4 6.05546 25.9445C5.59999 25.4891 5.41432 24.9223 5.32991 24.2945C5.24995 23.6997 5.24997 22.9505 5.25 22.052ZM6.81654 24.0946C6.87858 24.5561 6.9858 24.7536 7.11612 24.8839C7.24644 25.0142 7.44393 25.1214 7.90539 25.1835C8.38843 25.2484 9.03599 25.25 10 25.25H22C22.964 25.25 23.6116 25.2484 24.0946 25.1835C24.5561 25.1214 24.7536 25.0142 24.8839 24.8839C25.0142 24.7536 25.1214 24.5561 25.1835 24.0946C25.2484 23.6116 25.25 22.964 25.25 22C25.25 21.036 25.2484 20.3884 25.1835 19.9054C25.1214 19.4439 25.0142 19.2464 24.8839 19.1161C24.7536 18.9858 24.5561 18.8786 24.0946 18.8165C23.6116 18.7516 22.964 18.75 22 18.75H10C9.03599 18.75 8.38843 18.7516 7.90539 18.8165C7.44393 18.8786 7.24644 18.9858 7.11612 19.1161C6.9858 19.2464 6.87858 19.4439 6.81654 19.9054C6.7516 20.3884 6.75 21.036 6.75 22C6.75 22.964 6.7516 23.6116 6.81654 24.0946ZM5.25 10.052V9.948C5.24997 9.04952 5.24995 8.3003 5.32991 7.70552C5.41432 7.07772 5.59999 6.51093 6.05546 6.05545C6.51093 5.59999 7.07773 5.41431 7.70552 5.32991C8.30031 5.24994 9.04953 5.24997 9.94801 5.25H22.052C22.9505 5.24997 23.6997 5.24994 24.2945 5.32991C24.9223 5.41431 25.4891 5.59999 25.9445 6.05545C26.4 6.51093 26.5857 7.07772 26.6701 7.70552C26.7501 8.3003 26.75 9.04952 26.75 9.948V10.052C26.75 10.9505 26.7501 11.6997 26.6701 12.2945C26.5857 12.9223 26.4 13.4891 25.9445 13.9445C25.4891 14.4 24.9223 14.5857 24.2945 14.6701C23.6997 14.7501 22.9505 14.75 22.052 14.75L9.94801 14.75C9.04953 14.75 8.3003 14.7501 7.70552 14.6701C7.07773 14.5857 6.51093 14.4 6.05546 13.9445C5.59999 13.4891 5.41432 12.9223 5.32991 12.2945C5.24995 11.6997 5.24997 10.9505 5.25 10.052ZM6.81654 12.0946C6.87858 12.5561 6.9858 12.7536 7.11612 12.8839C7.24644 13.0142 7.44393 13.1214 7.90539 13.1835C8.38843 13.2484 9.03599 13.25 10 13.25L22 13.25C22.964 13.25 23.6116 13.2484 24.0946 13.1835C24.5561 13.1214 24.7536 13.0142 24.8839 12.8839C25.0142 12.7536 25.1214 12.5561 25.1835 12.0946C25.2484 11.6116 25.25 10.964 25.25 10C25.25 9.03599 25.2484 8.38843 25.1835 7.90539C25.1214 7.44393 25.0142 7.24643 24.8839 7.11612C24.7536 6.9858 24.5561 6.87858 24.0946 6.81653C23.6116 6.75159 22.964 6.75 22 6.75H10C9.03599 6.75 8.38843 6.75159 7.90539 6.81653C7.44393 6.87858 7.24644 6.9858 7.11612 7.11612C6.9858 7.24643 6.87858 7.44393 6.81654 7.90539C6.7516 8.38843 6.75 9.03599 6.75 10C6.75 10.964 6.7516 11.6116 6.81654 12.0946Z" fill="#000"/>
</svg>
