<svg width="32" height="32" viewBox="0 0 32 32" fill="none" xmlns="http://www.w3.org/2000/svg">
<path fill-rule="evenodd" clip-rule="evenodd" d="M10.448 5.75C9.54954 5.74997 8.8003 5.74995 8.20552 5.82991C7.57773 5.91432 7.01093 6.09999 6.55546 6.55546C6.09999 7.01093 5.91432 7.57773 5.82991 8.20552C5.74995 8.8003 5.74997 9.54951 5.75 10.448V10.552C5.74997 11.4505 5.74995 12.1997 5.82991 12.7945C5.91432 13.4223 6.09999 13.9891 6.55546 14.4445C7.01093 14.9 7.57773 15.0857 8.20552 15.1701C8.8003 15.2501 9.54951 15.25 10.448 15.25H10.552C11.4505 15.25 12.1997 15.2501 12.7945 15.1701C13.4223 15.0857 13.9891 14.9 14.4445 14.4445C14.9 13.9891 15.0857 13.4223 15.1701 12.7945C15.2501 12.1997 15.25 11.4505 15.25 10.552V10.448C15.25 9.54954 15.2501 8.8003 15.1701 8.20552C15.0857 7.57773 14.9 7.01093 14.4445 6.55546C13.9891 6.09999 13.4223 5.91432 12.7945 5.82991C12.1997 5.74995 11.4505 5.74997 10.552 5.75H10.448ZM7.61612 7.61612C7.74644 7.4858 7.94393 7.37858 8.4054 7.31654C8.88843 7.2516 9.53599 7.25 10.5 7.25C11.464 7.25 12.1116 7.2516 12.5946 7.31654C13.0561 7.37858 13.2536 7.4858 13.3839 7.61612C13.5142 7.74644 13.6214 7.94393 13.6835 8.4054C13.7484 8.88843 13.75 9.53599 13.75 10.5C13.75 11.464 13.7484 12.1116 13.6835 12.5946C13.6214 13.0561 13.5142 13.2536 13.3839 13.3839C13.2536 13.5142 13.0561 13.6214 12.5946 13.6835C12.1116 13.7484 11.464 13.75 10.5 13.75C9.53599 13.75 8.88843 13.7484 8.4054 13.6835C7.94393 13.6214 7.74644 13.5142 7.61612 13.3839C7.4858 13.2536 7.37858 13.0561 7.31654 12.5946C7.2516 12.1116 7.25 11.464 7.25 10.5C7.25 9.53599 7.2516 8.88843 7.31654 8.4054C7.37858 7.94393 7.4858 7.74644 7.61612 7.61612Z" fill="#000"/>
<path fill-rule="evenodd" clip-rule="evenodd" d="M21.448 16.75C20.5495 16.75 19.8003 16.7499 19.2055 16.8299C18.5777 16.9143 18.0109 17.1 17.5555 17.5555C17.1 18.0109 16.9143 18.5777 16.8299 19.2055C16.7499 19.8003 16.75 20.5495 16.75 21.448V21.552C16.75 22.4505 16.7499 23.1997 16.8299 23.7945C16.9143 24.4223 17.1 24.9891 17.5555 25.4445C18.0109 25.9 18.5777 26.0857 19.2055 26.1701C19.8003 26.2501 20.5495 26.25 21.4479 26.25H21.552C22.4504 26.25 23.1997 26.2501 23.7945 26.1701C24.4223 26.0857 24.9891 25.9 25.4445 25.4445C25.9 24.9891 26.0857 24.4223 26.1701 23.7945C26.2501 23.1997 26.25 22.4505 26.25 21.5521V21.448C26.25 20.5496 26.2501 19.8003 26.1701 19.2055C26.0857 18.5777 25.9 18.0109 25.4445 17.5555C24.9891 17.1 24.4223 16.9143 23.7945 16.8299C23.1997 16.7499 22.4505 16.75 21.552 16.75H21.448ZM18.6161 18.6161C18.7464 18.4858 18.9439 18.3786 19.4054 18.3165C19.8884 18.2516 20.536 18.25 21.5 18.25C22.464 18.25 23.1116 18.2516 23.5946 18.3165C24.0561 18.3786 24.2536 18.4858 24.3839 18.6161C24.5142 18.7464 24.6214 18.9439 24.6835 19.4054C24.7484 19.8884 24.75 20.536 24.75 21.5C24.75 22.464 24.7484 23.1116 24.6835 23.5946C24.6214 24.0561 24.5142 24.2536 24.3839 24.3839C24.2536 24.5142 24.0561 24.6214 23.5946 24.6835C23.1116 24.7484 22.464 24.75 21.5 24.75C20.536 24.75 19.8884 24.7484 19.4054 24.6835C18.9439 24.6214 18.7464 24.5142 18.6161 24.3839C18.4858 24.2536 18.3786 24.0561 18.3165 23.5946C18.2516 23.1116 18.25 22.464 18.25 21.5C18.25 20.536 18.2516 19.8884 18.3165 19.4054C18.3786 18.9439 18.4858 18.7464 18.6161 18.6161Z" fill="#000"/>
<path fill-rule="evenodd" clip-rule="evenodd" d="M10.448 16.75H10.552C11.4505 16.75 12.1997 16.7499 12.7945 16.8299C13.4223 16.9143 13.9891 17.1 14.4445 17.5555C14.9 18.0109 15.0857 18.5777 15.1701 19.2055C15.2501 19.8003 15.25 20.5495 15.25 21.448V21.552C15.25 22.4505 15.2501 23.1997 15.1701 23.7945C15.0857 24.4223 14.9 24.9891 14.4445 25.4445C13.9891 25.9 13.4223 26.0857 12.7945 26.1701C12.1997 26.2501 11.4505 26.25 10.5521 26.25H10.448C9.54955 26.25 8.80029 26.2501 8.20552 26.1701C7.57773 26.0857 7.01093 25.9 6.55546 25.4445C6.09999 24.9891 5.91432 24.4223 5.82991 23.7945C5.74995 23.1997 5.74997 22.4505 5.75 21.552V21.448C5.74997 20.5495 5.74995 19.8003 5.82991 19.2055C5.91432 18.5777 6.09999 18.0109 6.55546 17.5555C7.01093 17.1 7.57773 16.9143 8.20552 16.8299C8.8003 16.7499 9.54952 16.75 10.448 16.75ZM8.4054 18.3165C7.94393 18.3786 7.74644 18.4858 7.61612 18.6161C7.4858 18.7464 7.37858 18.9439 7.31654 19.4054C7.2516 19.8884 7.25 20.536 7.25 21.5C7.25 22.464 7.2516 23.1116 7.31654 23.5946C7.37858 24.0561 7.4858 24.2536 7.61612 24.3839C7.74644 24.5142 7.94393 24.6214 8.4054 24.6835C8.88843 24.7484 9.53599 24.75 10.5 24.75C11.464 24.75 12.1116 24.7484 12.5946 24.6835C13.0561 24.6214 13.2536 24.5142 13.3839 24.3839C13.5142 24.2536 13.6214 24.0561 13.6835 23.5946C13.7484 23.1116 13.75 22.464 13.75 21.5C13.75 20.536 13.7484 19.8884 13.6835 19.4054C13.6214 18.9439 13.5142 18.7464 13.3839 18.6161C13.2536 18.4858 13.0561 18.3786 12.5946 18.3165C12.1116 18.2516 11.464 18.25 10.5 18.25C9.53599 18.25 8.88843 18.2516 8.4054 18.3165Z" fill="#000"/>
<path fill-rule="evenodd" clip-rule="evenodd" d="M21.448 5.75C20.5495 5.74997 19.8003 5.74995 19.2055 5.82991C18.5777 5.91432 18.0109 6.09999 17.5555 6.55546C17.1 7.01093 16.9143 7.57773 16.8299 8.20552C16.7499 8.8003 16.75 9.54952 16.75 10.448V10.552C16.75 11.4505 16.7499 12.1997 16.8299 12.7945C16.9143 13.4223 17.1 13.9891 17.5555 14.4445C18.0109 14.9 18.5777 15.0857 19.2055 15.1701C19.8003 15.2501 20.5495 15.25 21.448 15.25H21.552C22.4505 15.25 23.1997 15.2501 23.7945 15.1701C24.4223 15.0857 24.9891 14.9 25.4445 14.4445C25.9 13.9891 26.0857 13.4223 26.1701 12.7945C26.2501 12.1997 26.25 11.4505 26.25 10.552V10.448C26.25 9.54954 26.2501 8.8003 26.1701 8.20552C26.0857 7.57773 25.9 7.01093 25.4445 6.55546C24.9891 6.09999 24.4223 5.91432 23.7945 5.82991C23.1997 5.74995 22.4505 5.74997 21.552 5.75H21.448ZM18.6161 7.61612C18.7464 7.4858 18.9439 7.37858 19.4054 7.31654C19.8884 7.2516 20.536 7.25 21.5 7.25C22.464 7.25 23.1116 7.2516 23.5946 7.31654C24.0561 7.37858 24.2536 7.4858 24.3839 7.61612C24.5142 7.74644 24.6214 7.94393 24.6835 8.4054C24.7484 8.88843 24.75 9.53599 24.75 10.5C24.75 11.464 24.7484 12.1116 24.6835 12.5946C24.6214 13.0561 24.5142 13.2536 24.3839 13.3839C24.2536 13.5142 24.0561 13.6214 23.5946 13.6835C23.1116 13.7484 22.464 13.75 21.5 13.75C20.536 13.75 19.8884 13.7484 19.4054 13.6835C18.9439 13.6214 18.7464 13.5142 18.6161 13.3839C18.4858 13.2536 18.3786 13.0561 18.3165 12.5946C18.2516 12.1116 18.25 11.464 18.25 10.5C18.25 9.53599 18.2516 8.88843 18.3165 8.4054C18.3786 7.94393 18.4858 7.74644 18.6161 7.61612Z" fill="#000"/>
<defs>
<linearGradient id="paint0_linear_4088_8562" x1="12.64" y1="24.48" x2="32" y2="3.34263e-06" gradientUnits="userSpaceOnUse">
<stop stop-color="#000"/>
<stop offset="1" stop-color="#000"/>
</linearGradient>
</defs>
</svg>
