<svg width="32" height="32" viewBox="0 0 32 32" fill="none" xmlns="http://www.w3.org/2000/svg">
<path fill-rule="evenodd" clip-rule="evenodd" d="M21 6.75C19.7574 6.75 18.75 7.75736 18.75 9C18.75 10.2426 19.7574 11.25 21 11.25C22.2426 11.25 23.25 10.2426 23.25 9C23.25 7.75736 22.2426 6.75 21 6.75ZM17.25 9C17.25 6.92893 18.9289 5.25 21 5.25C23.0711 5.25 24.75 6.92893 24.75 9C24.75 10.8142 23.4617 12.3275 21.75 12.675V13.2607C22.3712 13.2738 22.9168 13.3027 23.3918 13.3665C24.2919 13.4875 25.0497 13.7464 25.6517 14.3483C26.2536 14.9503 26.5125 15.7081 26.6335 16.6082C26.75 17.4752 26.75 18.5775 26.75 19.9451V20.0549C26.75 21.4225 26.75 22.5248 26.6335 23.3918C26.5125 24.2919 26.2536 25.0497 25.6517 25.6516C25.0497 26.2536 24.2919 26.5125 23.3918 26.6335C22.5248 26.75 21.4225 26.75 20.0549 26.75H11.9451C10.5775 26.75 9.47522 26.75 8.60825 26.6335C7.70814 26.5125 6.95027 26.2536 6.34835 25.6516C5.74643 25.0497 5.48754 24.2919 5.36652 23.3918C5.24996 22.5248 5.24998 21.4225 5.25 20.0549V19.9451C5.24998 18.5775 5.24996 17.4752 5.36652 16.6082C5.48754 15.7081 5.74643 14.9503 6.34835 14.3484C6.95027 13.7464 7.70814 13.4875 8.60825 13.3665C9.47522 13.25 10.5775 13.25 11.9451 13.25H20.0549C20.1205 13.25 20.1856 13.25 20.25 13.25V12.675C18.5383 12.3275 17.25 10.8142 17.25 9ZM20.25 14.75C20.1682 14.75 20.0848 14.75 20 14.75H12C10.5646 14.75 9.56347 14.7516 8.80812 14.8531C8.6605 14.873 8.52685 14.8962 8.40527 14.9227L16.3532 19.3382C16.361 19.3424 16.3688 19.3467 16.3765 19.3512L24.9208 24.098C25.0203 23.869 25.0949 23.5783 25.1469 23.1919C25.2484 22.4365 25.25 21.4354 25.25 20C25.25 18.5646 25.2484 17.5635 25.1469 16.8081C25.0482 16.0743 24.8678 15.6858 24.591 15.409C24.3142 15.1322 23.9257 14.9518 23.1919 14.8531C22.7902 14.7991 22.319 14.7734 21.75 14.7611V17C21.75 17.4142 21.4142 17.75 21 17.75C20.5858 17.75 20.25 17.4142 20.25 17V14.75ZM23.5947 25.0773L16.0106 20.8639L8.74465 25.138C8.76552 25.141 8.78667 25.144 8.80812 25.1469C9.56347 25.2484 10.5646 25.25 12 25.25H20C21.4354 25.25 22.4365 25.2484 23.1919 25.1469C23.3395 25.127 23.4731 25.1038 23.5947 25.0773ZM7.18976 24.3124L14.4891 20.0186L7.07919 15.902C6.97974 16.131 6.9051 16.4217 6.85315 16.8081C6.75159 17.5635 6.75 18.5646 6.75 20C6.75 21.4354 6.75159 22.4365 6.85315 23.1919C6.92283 23.7102 7.03333 24.0563 7.18976 24.3124Z" fill="#000"/>
</svg>
