<svg width="11" height="16" viewBox="0 0 11 16" fill="none" xmlns="http://www.w3.org/2000/svg">
<path d="M9.86934 3.32852C9.01672 1.7706 7.50228 0.818801 5.81819 0.782427C5.7463 0.780858 5.67394 0.780858 5.60202 0.782427C3.91796 0.818801 2.40352 1.7706 1.55087 3.32852C0.679339 4.92096 0.655495 6.83379 1.48707 8.44537L4.97086 15.1968C4.97242 15.1998 4.97399 15.2028 4.97561 15.2058C5.12888 15.4879 5.40347 15.6562 5.71016 15.6562C6.01682 15.6562 6.29141 15.4878 6.44466 15.2058C6.44628 15.2028 6.44784 15.1998 6.44941 15.1968L9.93319 8.44537C10.7647 6.83379 10.7409 4.92096 9.86934 3.32852ZM5.71011 7.52149C4.62073 7.52149 3.73447 6.58312 3.73447 5.4297C3.73447 4.27628 4.62073 3.3379 5.71011 3.3379C6.79948 3.3379 7.68574 4.27628 7.68574 5.4297C7.68574 6.58312 6.7995 7.52149 5.71011 7.52149Z" fill="#2575ED"/>
</svg>
