<svg width="20" height="21" viewBox="0 0 20 21" fill="none" xmlns="http://www.w3.org/2000/svg">
    <g>
    <path d="M10 20.293C15.5228 20.293 20 15.8158 20 10.293C20 4.77012 15.5228 0.292969 10 0.292969C4.47715 0.292969 0 4.77012 0 10.293C0 15.8158 4.47715 20.293 10 20.293Z" fill="#2196F3"/>
    <path d="M15 12.3605C13.9213 12.3605 12.8925 12.1255 11.9438 11.6617C11.795 11.5905 11.6225 11.5792 11.465 11.633C11.3075 11.688 11.1788 11.803 11.1063 11.9517L10.6562 12.883C9.30625 12.108 8.18625 10.9867 7.41 9.63672L8.3425 9.18672C8.4925 9.11422 8.60625 8.98547 8.66125 8.82797C8.715 8.67047 8.705 8.49797 8.6325 8.34922C8.1675 7.40172 7.9325 6.37297 7.9325 5.29297C7.9325 4.94797 7.6525 4.66797 7.3075 4.66797H5C4.655 4.66797 4.375 4.94797 4.375 5.29297C4.375 11.1517 9.14125 15.918 15 15.918C15.345 15.918 15.625 15.638 15.625 15.293V12.9855C15.625 12.6405 15.345 12.3605 15 12.3605Z" fill="#FAFAFA"/>
    </g>
    <defs>
    <clipPath id="clip0">
    <rect width="20" height="20" fill="white" transform="translate(0 0.292969)"/>
    </clipPath>
    </defs>
    </svg>
