<svg width="31" height="31" viewBox="0 0 31 31" fill="none" xmlns="http://www.w3.org/2000/svg">
    <g clip-path="">
    <path d="M15.6816 30.8711C23.9659 30.8711 30.6816 24.1554 30.6816 15.8711C30.6816 7.58682 23.9659 0.871094 15.6816 0.871094C7.39737 0.871094 0.681641 7.58682 0.681641 15.8711C0.681641 24.1554 7.39737 30.8711 15.6816 30.8711Z" fill="#2575ED"/>
    <path fill-rule="evenodd" clip-rule="evenodd" d="M15.6799 10.4023C16.0941 10.4023 16.4299 10.7381 16.4299 11.1523V21.1493C16.4299 21.5635 16.0941 21.8993 15.6799 21.8993C15.2657 21.8993 14.9299 21.5635 14.9299 21.1493V11.1523C14.9299 10.7381 15.2657 10.4023 15.6799 10.4023Z" fill="white"/>
    <path fill-rule="evenodd" clip-rule="evenodd" d="M9.93457 15.957C9.93457 15.5428 10.2704 15.207 10.6846 15.207H20.6815C21.0957 15.207 21.4315 15.5428 21.4315 15.957C21.4315 16.3712 21.0957 16.707 20.6815 16.707H10.6846C10.2704 16.707 9.93457 16.3712 9.93457 15.957Z" fill="white"/>
    </g>
    <defs>
    <clipPath id="clip0">
    <rect width="30" height="30" fill="white" transform="translate(0.681641 0.871094)"/>
    </clipPath>
    </defs>
    </svg>
