<svg width="29" height="28" viewBox="0 0 29 28" fill="none" xmlns="http://www.w3.org/2000/svg">
<path d="M15.706 14.9246H26.8289C27.5197 14.9249 28.0798 14.3647 28.0795 13.674C28.0795 12.9829 27.5199 12.4234 26.8289 12.4234L15.706 12.4234L15.7057 1.30016C15.7057 0.609105 15.1461 0.0495405 14.4551 0.0495405C13.7643 0.0492456 13.2042 0.6094 13.2045 1.30016L13.2048 12.4234L2.08156 12.4231C1.3908 12.4228 0.830645 12.9829 0.830938 13.6737C0.831234 14.0189 0.971272 14.3317 1.1974 14.5578C1.42352 14.784 1.73633 14.924 2.08185 14.924L13.205 14.9243V26.0472C13.205 26.3927 13.3451 26.7055 13.5712 26.9317C13.7973 27.1578 14.1101 27.2978 14.4557 27.2978C15.1464 27.2981 15.7066 26.738 15.7063 26.0472L15.706 14.9246Z" fill="#2575ED"/>
</svg>
