<svg width="21" height="21" viewBox="0 0 21 21" fill="none" xmlns="http://www.w3.org/2000/svg">
<circle cx="10.9913" cy="10.9062" r="10" fill="#D4E3F6"/>
<path d="M10.0245 13.2832C10.0245 12.7363 10.0909 12.3008 10.2238 11.9766C10.3566 11.6523 10.5988 11.334 10.9503 11.0215C11.3058 10.7051 11.5421 10.4492 11.6593 10.2539C11.7765 10.0547 11.8351 9.8457 11.8351 9.62695C11.8351 8.9668 11.5304 8.63672 10.921 8.63672C10.632 8.63672 10.3995 8.72656 10.2238 8.90625C10.0519 9.08203 9.96204 9.32617 9.95422 9.63867H8.255C8.26282 8.89258 8.50305 8.30859 8.97571 7.88672C9.45227 7.46484 10.1007 7.25391 10.921 7.25391C11.7491 7.25391 12.3917 7.45508 12.8488 7.85742C13.3058 8.25586 13.5343 8.82031 13.5343 9.55078C13.5343 9.88281 13.4601 10.1973 13.3116 10.4941C13.1632 10.7871 12.9034 11.1133 12.5323 11.4727L12.0577 11.9238C11.7609 12.209 11.5909 12.543 11.548 12.9258L11.5245 13.2832H10.0245ZM9.85461 15.082C9.85461 14.8203 9.9425 14.6055 10.1183 14.4375C10.298 14.2656 10.5265 14.1797 10.8038 14.1797C11.0812 14.1797 11.3077 14.2656 11.4835 14.4375C11.6632 14.6055 11.7531 14.8203 11.7531 15.082C11.7531 15.3398 11.6652 15.5527 11.4894 15.7207C11.3175 15.8887 11.089 15.9727 10.8038 15.9727C10.5187 15.9727 10.2882 15.8887 10.1124 15.7207C9.94055 15.5527 9.85461 15.3398 9.85461 15.082Z" fill="#2575ED"/>
</svg>
