<svg width="16" height="16" viewBox="0 0 16 16" fill="none" xmlns="http://www.w3.org/2000/svg">
<path d="M14.5231 14.6326L10.4441 10.548C11.4845 9.54336 12.1291 8.15832 12.1291 6.63081C12.1291 3.56998 9.54319 1.08008 6.36435 1.08008C3.18551 1.08008 0.599609 3.56998 0.599609 6.63081C0.599609 9.69164 3.18551 12.1815 6.36435 12.1815C7.75969 12.1815 9.04029 11.7013 10.0384 10.9043L14.1273 14.9989C14.1811 15.0531 14.253 15.0801 14.3252 15.0801C14.3938 15.0801 14.4622 15.0555 14.5154 15.0063C14.6247 14.9051 14.628 14.7378 14.5231 14.6326ZM6.36435 11.6529C3.48829 11.6529 1.14863 9.40009 1.14863 6.63081C1.14863 3.86152 3.48829 1.60872 6.36435 1.60872C9.24041 1.60872 11.5801 3.86152 11.5801 6.63081C11.5801 9.40009 9.24013 11.6529 6.36435 11.6529Z" fill="#9E9E9E"/>
<path fill-rule="evenodd" clip-rule="evenodd" d="M14.9484 14.2094C15.2937 14.5557 15.2818 15.1149 14.9236 15.4468L14.9228 15.4476C14.7529 15.6045 14.5369 15.6805 14.3256 15.6805C14.1056 15.6805 13.877 15.598 13.7026 15.4228C13.7023 15.4225 13.7028 15.423 13.7026 15.4228L9.97738 11.6924C8.94966 12.3794 7.70397 12.7819 6.36474 12.7819C2.87612 12.7819 0 10.0446 0 6.6312C0 3.21781 2.87612 0.480469 6.36474 0.480469C9.85336 0.480469 12.7295 3.21781 12.7295 6.6312C12.7295 8.11537 12.1824 9.47528 11.2793 10.5352L14.9484 14.2094ZM14.1426 15.0133C14.1944 15.0582 14.2595 15.0801 14.3252 15.0801C14.3938 15.0801 14.4622 15.0555 14.5154 15.0063C14.6247 14.9051 14.628 14.7378 14.5231 14.6326L10.4441 10.548C10.4588 10.5339 10.4738 10.52 10.4883 10.5057C10.5193 10.4751 10.5499 10.4442 10.5802 10.413C11.5407 9.42101 12.1291 8.09079 12.1291 6.63081C12.1291 3.56998 9.54319 1.08008 6.36435 1.08008C3.18551 1.08008 0.599609 3.56998 0.599609 6.63081C0.599609 9.69164 3.18551 12.1815 6.36435 12.1815C7.73728 12.1815 8.99952 11.717 9.9905 10.9429C10.0067 10.9302 10.0224 10.9171 10.0384 10.9043L14.1273 14.9989C14.132 15.0037 14.1376 15.009 14.1426 15.0133C14.1428 15.0134 14.1425 15.0132 14.1426 15.0133ZM9.609 10.5609C9.64111 10.5362 9.67292 10.5113 9.70441 10.4859C9.83185 10.3834 9.95415 10.2751 10.0709 10.1615C10.0833 10.1494 10.0957 10.1372 10.1081 10.125C11.019 9.22037 11.5801 7.98736 11.5801 6.63081C11.5801 3.86152 9.24041 1.60872 6.36435 1.60872C3.48829 1.60872 1.14863 3.86152 1.14863 6.63081C1.14863 9.40009 3.48829 11.6529 6.36435 11.6529C7.58953 11.6529 8.71784 11.2444 9.609 10.5609ZM1.74902 6.6312C1.74902 9.04792 3.79846 11.0533 6.36474 11.0533C8.93077 11.0533 10.9805 9.0479 10.9805 6.6312C10.9805 4.21448 8.93102 2.20911 6.36474 2.20911C3.79846 2.20911 1.74902 4.21448 1.74902 6.6312Z" fill="#9E9E9E"/>
</svg>
