<svg width="15" height="15" viewBox="0 0 15 15" fill="none" xmlns="http://www.w3.org/2000/svg">
    <path d="M14.2105 5.75436L14.2104 5.75435L10.169 5.37148L9.86796 5.34296L9.75342 5.06312L8.15657 1.16191C8.15652 1.16178 8.15646 1.16165 8.15641 1.16152C8.11152 1.0528 8.01962 1 7.93409 1C7.8482 1 7.75674 1.05307 7.71268 1.16087L7.71258 1.16111L6.1154 5.06312L6.00086 5.34297L5.69982 5.37148L1.65857 5.75428C1.65854 5.75428 1.6585 5.75428 1.65846 5.75429C1.57302 5.76256 1.48386 5.8253 1.44792 5.9391C1.41208 6.05484 1.44828 6.17577 1.5253 6.24629C1.52531 6.2463 1.52532 6.24631 1.52534 6.24632L4.58026 9.04161L4.79245 9.23576L4.7313 9.51679L3.83066 13.6562C3.83064 13.6562 3.83062 13.6563 3.8306 13.6564C3.80445 13.7777 3.85208 13.8923 3.93244 13.9529L3.93343 13.9537C3.97581 13.9858 4.02236 14 4.06767 14C4.10641 14 4.14648 13.9894 4.18439 13.9658L4.18453 13.9657L7.66941 11.7913L7.93411 11.6261L8.1988 11.7913L11.6829 13.9656C11.762 14.015 11.8584 14.0114 11.9353 13.9532L11.9357 13.9529C12.0161 13.8923 12.0637 13.7778 12.0376 13.6565C12.0376 13.6564 12.0375 13.6563 12.0375 13.6562L11.1369 9.51679L11.0757 9.23576L11.2879 9.04161L14.3428 6.2464L14.2105 5.75436ZM14.2105 5.75436C14.2957 5.76241 14.3847 5.825 14.4201 5.93856M14.2105 5.75436L14.4201 5.93856M14.4201 5.93856C14.4562 6.05509 14.42 6.17562 14.3429 6.24629L14.4201 5.93856Z" stroke="#2575ED"/>
    </svg>
    