<svg width="19" height="18" viewBox="0 0 19 18" fill="none" xmlns="http://www.w3.org/2000/svg">
<path fill-rule="evenodd" clip-rule="evenodd" d="M8.96886 2.48107C8.67356 2.86668 8.34024 3.46163 7.85608 4.33016L7.61031 4.77106C7.5955 4.79763 7.58087 4.82396 7.56638 4.85002C7.34083 5.25593 7.15046 5.59852 6.84371 5.83138C6.53365 6.06676 6.15567 6.1517 5.71639 6.25042C5.68816 6.25677 5.65967 6.26317 5.63094 6.26967L5.15367 6.37765C4.21218 6.59067 3.57169 6.73724 3.13299 6.91013C2.70489 7.07884 2.61453 7.21706 2.58008 7.32783C2.54373 7.44473 2.54265 7.62354 2.79858 8.03009C3.05834 8.44273 3.49657 8.95742 4.13746 9.70686L4.46283 10.0873C4.48174 10.1094 4.50048 10.1313 4.51903 10.1529C4.82128 10.5055 5.07331 10.7995 5.18892 11.1713C5.30382 11.5408 5.26574 11.929 5.21956 12.3998C5.21673 12.4287 5.21386 12.4579 5.211 12.4874L5.16181 12.9951C5.06499 13.9942 4.99971 14.6821 5.02179 15.1777C5.04382 15.6723 5.1483 15.8091 5.23136 15.8721C5.30524 15.9282 5.44181 15.9903 5.88674 15.8628C6.33889 15.7333 6.93982 15.4583 7.82139 15.0524L8.26825 14.8467C8.29577 14.834 8.32303 14.8214 8.35005 14.8089C8.75865 14.62 9.11313 14.4561 9.49989 14.4561C9.88664 14.4561 10.2411 14.62 10.6497 14.8089C10.6767 14.8214 10.704 14.834 10.7315 14.8467L11.1784 15.0524C12.06 15.4583 12.6609 15.7333 13.113 15.8628C13.558 15.9903 13.6945 15.9282 13.7684 15.8721C13.8515 15.8091 13.956 15.6723 13.978 15.1777C14.0001 14.6821 13.9348 13.9942 13.838 12.995L13.7888 12.4874C13.7859 12.4579 13.7831 12.4287 13.7802 12.3999C13.734 11.9291 13.696 11.5408 13.8109 11.1713C13.9265 10.7995 14.1785 10.5055 14.4808 10.1529C14.4993 10.1313 14.518 10.1094 14.537 10.0873L14.8623 9.70686C15.5032 8.95742 15.9414 8.44273 16.2012 8.03009C16.4571 7.62354 16.456 7.44473 16.4197 7.32783C16.3853 7.21706 16.2949 7.07884 15.8668 6.91013C15.4281 6.73724 14.7876 6.59067 13.8461 6.37765L13.3688 6.26967C13.3401 6.26317 13.3116 6.25676 13.2834 6.25042C12.8441 6.1517 12.4661 6.06676 12.1561 5.83138C11.8493 5.59852 11.6589 5.25593 11.4334 4.85002C11.4189 4.82396 11.4043 4.79763 11.3895 4.77106L11.1437 4.33016C10.6595 3.46163 10.3262 2.86668 10.0309 2.48107C9.7359 2.09582 9.58521 2.0625 9.49989 2.0625C9.41457 2.0625 9.26388 2.09582 8.96886 2.48107ZM8.07568 1.79707C8.43319 1.33022 8.87506 0.9375 9.49989 0.9375C10.1247 0.9375 10.5666 1.33022 10.9241 1.79707C11.2754 2.2558 11.6479 2.92407 12.1032 3.74082L12.3721 4.22329C12.6665 4.75143 12.7418 4.86361 12.8363 4.93533C12.9272 5.00436 13.0445 5.04285 13.6171 5.1724L14.1421 5.29119C15.0238 5.49066 15.7502 5.65499 16.2793 5.86347C16.8284 6.07988 17.309 6.39885 17.494 6.99377C17.677 7.58255 17.4713 8.12424 17.1533 8.62943C16.8443 9.12028 16.3507 9.69739 15.7478 10.4023L15.392 10.8185C15.0042 11.2719 14.9232 11.3829 14.8851 11.5053C14.8463 11.6302 14.85 11.7744 14.9085 12.3789L14.9622 12.9325C15.0535 13.8745 15.1279 14.6427 15.1019 15.2278C15.0753 15.8232 14.9401 16.3951 14.4486 16.7682C13.948 17.1482 13.3655 17.1054 12.8032 16.9443C12.2579 16.7881 11.5782 16.4751 10.7528 16.095L10.261 15.8686C9.72302 15.6209 9.60784 15.5811 9.49989 15.5811C9.39194 15.5811 9.27676 15.6209 8.73876 15.8686L8.24702 16.095C7.42161 16.4751 6.74187 16.7881 6.19661 16.9443C5.63428 17.1054 5.05178 17.1482 4.55114 16.7682C4.05968 16.3951 3.92443 15.8232 3.8979 15.2278C3.87184 14.6427 3.9463 13.8745 4.03761 12.9325L4.09125 12.3789C4.14983 11.7744 4.15348 11.6302 4.11466 11.5053C4.07658 11.3829 3.99558 11.2719 3.60783 10.8185L3.25197 10.4024C2.64908 9.6974 2.15552 9.12029 1.84652 8.62943C1.5285 8.12424 1.32273 7.58255 1.50583 6.99377C1.69083 6.39885 2.17138 6.07988 2.72052 5.86347C3.24954 5.65499 3.97593 5.49066 4.85766 5.29119L4.90541 5.28039L5.38267 5.1724C5.95525 5.04285 6.07255 5.00436 6.16348 4.93533C6.25795 4.86361 6.33327 4.75143 6.62767 4.22329L6.89662 3.74082C7.35188 2.92407 7.72439 2.2558 8.07568 1.79707Z" fill="#070707"/>
</svg>
