<svg width="40" height="41" viewBox="0 0 40 41" fill="none" xmlns="http://www.w3.org/2000/svg">
<rect x="0.5" y="1" width="39" height="39" rx="19.5" stroke="#B8C1CC"/>
<path d="M9.88379 20.6387C9.87375 20.6344 9.85686 20.6275 9.83594 20.6172C9.7925 20.5957 9.73569 20.5635 9.67969 20.5225C9.55625 20.4319 9.50811 20.3509 9.5 20.292C9.50139 20.289 9.5046 20.2847 9.50879 20.2783C9.52853 20.2484 9.56968 20.2057 9.63672 20.1582C9.70095 20.1127 9.7707 20.0753 9.82715 20.0488C9.85459 20.036 9.87726 20.0263 9.8916 20.0205L9.90625 20.0146V20.0156L9.91699 20.0117L9.92773 20.0068L26.8018 13.1523L26.8105 13.1484L26.8203 13.1445H26.8193V13.1436L26.8262 13.1416C26.8329 13.1387 26.8445 13.1339 26.8594 13.1279C26.8893 13.1159 26.9333 13.0995 26.9863 13.082C27.0974 13.0454 27.2283 13.0122 27.3457 13.0029C27.4238 12.9968 27.4682 13.0028 27.4893 13.0078C27.4924 13.0198 27.4955 13.0385 27.4971 13.0674L24.5156 28.6357C24.508 28.6507 24.4981 28.671 24.4844 28.6934C24.4461 28.7558 24.3913 28.8277 24.3213 28.8857C24.2539 28.9416 24.1761 28.9818 24.082 28.9951C23.9952 29.0074 23.8628 28.9987 23.6699 28.9189L17.2236 23.7998L25.3174 16.2559C25.4696 16.1088 25.6006 15.9397 25.668 15.7529C25.7348 15.5675 25.7636 15.2619 25.5273 15.0283C25.3177 14.8213 25.0422 14.8204 24.875 14.8477C24.7353 14.8705 24.5938 14.9228 24.4561 14.9951L24.3193 15.0742L24.3105 15.0801L13.7871 21.999L9.8916 20.6416L9.88379 20.6387Z" stroke="#B8C1CC"/>
</svg>
