<svg width="31" height="31" viewBox="0 0 31 31" fill="none" xmlns="http://www.w3.org/2000/svg">
<g>
<path d="M15.4211 15.2519C17.4064 15.2519 19.1256 14.5398 20.5302 13.1349C21.9349 11.7303 22.6469 10.0116 22.6469 8.02609C22.6469 6.04124 21.9349 4.32234 20.53 2.91724C19.1251 1.51283 17.4062 0.800781 15.4211 0.800781C13.4356 0.800781 11.7169 1.51283 10.3122 2.91747C8.90759 4.32211 8.19531 6.04101 8.19531 8.02609C8.19531 10.0116 8.90759 11.7305 10.3125 13.1352C11.7173 14.5396 13.4362 15.2519 15.4211 15.2519Z" fill="#2575ED"/>
<path d="M28.0642 23.8703C28.0237 23.2857 27.9417 22.6481 27.8211 21.9747C27.6994 21.2963 27.5426 20.655 27.3549 20.0688C27.161 19.463 26.8974 18.8647 26.5714 18.2913C26.2331 17.6962 25.8358 17.178 25.3899 16.7516C24.9237 16.3055 24.3529 15.9469 23.6928 15.6853C23.035 15.425 22.306 15.2932 21.5262 15.2932C21.2199 15.2932 20.9238 15.4189 20.3518 15.7912C19.9998 16.0208 19.588 16.2863 19.1284 16.58C18.7354 16.8304 18.203 17.065 17.5455 17.2774C16.9039 17.485 16.2525 17.5902 15.6096 17.5902C14.9667 17.5902 14.3155 17.485 13.6732 17.2774C13.0164 17.0652 12.484 16.8306 12.0914 16.5802C11.6362 16.2893 11.2242 16.0238 10.8669 15.791C10.2956 15.4186 9.99924 15.293 9.69299 15.293C8.91296 15.293 8.1842 15.425 7.52663 15.6855C6.86699 15.9467 6.29593 16.3053 5.82924 16.7519C5.38361 17.1785 4.98604 17.6964 4.64821 18.2913C4.32251 18.8647 4.05884 19.4627 3.86475 20.069C3.67729 20.6552 3.52051 21.2963 3.39874 21.9747C3.27812 22.6471 3.19618 23.285 3.15567 23.871C3.11584 24.445 3.0957 25.0408 3.0957 25.6425C3.0957 27.2085 3.59352 28.4763 4.5752 29.4113C5.54474 30.3339 6.82762 30.8019 8.38768 30.8019H22.8329C24.3929 30.8019 25.6754 30.3341 26.6451 29.4113C27.627 28.477 28.1248 27.209 28.1248 25.6423C28.1246 25.0378 28.1042 24.4416 28.0642 23.8703Z" fill="#2575ED"/>
</g>
<defs>
<clipPath id="clip0">
<rect width="30" height="30" fill="white" transform="translate(0.634766 0.800781)"/>
</clipPath>
</defs>
</svg>
