<svg width="48" height="48" viewBox="0 0 48 48" fill="none" xmlns="http://www.w3.org/2000/svg">
    <g>
    <path d="M29.6561 18.3433C29.2661 17.9533 28.632 17.9533 28.242 18.3433C27.852 18.7333 27.852 19.3693 28.242 19.7573C29.3741 20.8893 30 22.3953 30 23.9993C30 27.3073 27.308 29.9993 24 29.9993C22.3961 29.9993 20.8901 29.3753 19.758 28.2413C19.368 27.8513 18.734 27.8513 18.344 28.2413C17.954 28.6293 17.954 29.2653 18.344 29.6553C19.852 31.1673 21.862 31.9994 24 31.9994C28.412 31.9994 32 28.4114 32 23.9994C32 21.8612 31.1681 19.8512 29.6561 18.3433Z" fill="white"/>
    <path d="M25.3942 16.138C24.9401 16.058 24.4762 16 24.0002 16C19.5882 16 16.0002 19.588 16.0002 24C16.0002 24.4759 16.0583 24.94 16.1402 25.3939C16.2262 25.8779 16.6482 26.2199 17.1222 26.2199C17.1803 26.2199 17.2382 26.2159 17.2982 26.2039C17.8402 26.1079 18.2042 25.5879 18.1082 25.0459C18.0462 24.7059 18.0002 24.36 18.0002 24C18.0002 20.692 20.6922 18 24.0002 18C24.3602 18 24.7062 18.046 25.0462 18.106C25.5782 18.214 26.1082 17.838 26.2042 17.296C26.3002 16.754 25.9362 16.234 25.3942 16.138Z" fill="white"/>
    <path d="M47.7619 23.353C47.5359 23.085 42.126 16.771 34.664 12.9051C34.1799 12.6511 33.57 12.8431 33.3159 13.3351C33.062 13.8251 33.254 14.4291 33.746 14.6831C39.494 17.6591 44.0859 22.3031 45.6559 23.9991C43.272 26.5811 33.89 35.9991 24 35.9991C20.6441 35.9991 17.262 35.1891 13.944 33.5891C13.452 33.3471 12.8501 33.5571 12.6101 34.0551C12.3681 34.5512 12.5781 35.1491 13.0761 35.3891C16.6661 37.1231 20.3421 37.9991 24.0001 37.9991C36.3221 37.9991 47.3021 25.1911 47.7641 24.6451C48.0799 24.273 48.078 23.727 47.7619 23.353Z" fill="white"/>
    <path d="M30.5621 11.152C28.2861 10.386 26.0782 10 24.0001 10C11.6781 10 0.698103 22.808 0.236104 23.354C-0.0559265 23.698 -0.0799264 24.198 0.180136 24.572C0.318135 24.77 3.62413 29.464 9.35412 33.27C9.52409 33.384 9.71412 33.438 9.90612 33.438C10.2281 33.438 10.5461 33.282 10.7381 32.988C11.0441 32.53 10.9181 31.908 10.4581 31.604C6.25016 28.806 3.37016 25.428 2.29213 24.054C4.59416 21.554 14.0381 12.0001 24.0001 12.0001C25.8621 12.0001 27.8561 12.3521 29.9241 13.046C30.448 13.234 31.016 12.944 31.19 12.418C31.3661 11.894 31.0861 11.3281 30.5621 11.152Z" fill="white"/>
    <path d="M41.7062 6.2925C41.3162 5.9025 40.6821 5.9025 40.2921 6.2925L6.29226 40.2925C5.90226 40.6825 5.90226 41.3165 6.29226 41.7065C6.48829 41.9005 6.74422 41.9985 7.00025 41.9985C7.25628 41.9985 7.51222 41.9006 7.70628 41.7065L41.7062 7.70653C42.0961 7.31653 42.0961 6.6825 41.7062 6.2925Z" fill="white"/>
    </g>
    <defs>
    <clipPath id="clip0">
    <rect width="48" height="48" fill="white"/>
    </clipPath>
    </defs>
    </svg>
