<svg width="40" height="41" viewBox="0 0 40 41" fill="none" xmlns="http://www.w3.org/2000/svg">
<path d="M20 1C30.7699 1 39.5 9.73014 39.5 20.5C39.5 31.2699 30.7699 40 20 40C9.23014 40 0.5 31.2699 0.5 20.5C0.5 9.73014 9.23014 1 20 1Z" stroke="#B8C1CC"/>
<path d="M17.5 16.8232L17.499 16.8096C17.4428 15.7802 17.1611 15.1878 16.8779 14.7617C16.8116 14.662 16.7472 14.5726 16.6943 14.5C16.6387 14.4235 16.5982 14.3676 16.5664 14.3164C16.5086 14.2233 16.5 14.1803 16.5 14.1406C16.5001 14.0854 16.5192 14.0458 16.5352 14.0273C16.5421 14.0194 16.5492 14.0145 16.5576 14.0107C16.5658 14.007 16.5843 14 16.6191 14H21.2676C21.3624 14 21.4067 14.0144 21.4209 14.0205C21.4274 14.0233 21.4268 14.023 21.4297 14.0273C21.4371 14.0383 21.4571 14.0746 21.4736 14.1592C21.4901 14.2437 21.5 14.3586 21.5 14.5137V19.6992C21.5001 20.133 21.6703 20.4636 21.9014 20.6826C22.1101 20.8804 22.3847 21 22.624 21C22.7794 21 23.0313 21.0087 23.3262 20.8936C23.6151 20.7807 23.9043 20.5687 24.2363 20.2197L24.2461 20.209L24.2549 20.1982C25.2244 19.0565 26.121 17.6329 26.7695 16.5068C27.0951 15.9415 27.361 15.4461 27.5459 15.0918C27.6384 14.9145 27.7104 14.7721 27.7598 14.6738C27.7844 14.6247 27.8035 14.5867 27.8164 14.5605C27.8229 14.5475 27.8277 14.5372 27.8311 14.5303L27.8359 14.5205L27.8369 14.5195L27.8408 14.5117L27.8438 14.5039C27.9169 14.3391 27.9986 14.216 28.0967 14.1348C28.184 14.0624 28.3118 14 28.5312 14H31.1494C31.3736 14.0001 31.4554 14.0509 31.4736 14.0654C31.4764 14.0676 31.4819 14.0717 31.4873 14.083L31.499 14.1455L31.5 14.1494C31.5024 14.2008 31.4937 14.2817 31.459 14.3955L31.4521 14.417L31.4473 14.4404C31.3813 14.76 31.1427 15.2981 30.7783 15.9707C30.4231 16.6264 29.9772 17.3594 29.5381 18.0488C29.0997 18.7371 28.6709 19.3763 28.3535 19.8447C28.1947 20.0792 28.065 20.2703 27.9736 20.4043C27.9285 20.4705 27.8914 20.5247 27.8662 20.5625C27.8542 20.5805 27.8417 20.5988 27.832 20.6143C27.8292 20.6189 27.8241 20.6289 27.8174 20.6406C27.6876 20.8623 27.5173 21.1458 27.501 21.4746C27.4834 21.8182 27.6314 22.1155 27.8389 22.4062V22.4072C28.1327 22.8284 28.757 23.5837 29.3643 24.3174V24.3184C29.9072 24.9748 30.3963 25.6478 30.7715 26.2236C31.1469 26.7999 31.3823 27.2431 31.4629 27.4707C31.4908 27.5828 31.5014 27.6698 31.5 27.7363C31.4965 27.8574 31.4607 27.8932 31.4346 27.9131C31.3892 27.9476 31.2732 28 31.0293 28H28.4111C28.1431 28 27.9446 27.9004 27.5527 27.4346C27.353 27.1972 27.1323 26.9008 26.8369 26.5156C26.6188 26.2311 26.3665 25.9086 26.0684 25.5479L25.7549 25.1748C24.2422 23.41 23.3349 23 22.7168 23C22.4501 23 22.0495 23.0205 21.7764 23.3438C21.6476 23.4962 21.5824 23.6763 21.5469 23.8496C21.5115 24.0221 21.4993 24.2189 21.499 24.4336V27.4062C21.499 27.7168 21.4513 27.7669 21.4023 27.8037C21.2929 27.8858 20.9829 28 20.1494 28C17.6742 28 14.7848 26.361 12.498 23.373L12.2783 23.0801C9.05994 18.6755 8.50026 14.8797 8.5 14.2744C8.5 14.1095 8.53053 14.0714 8.5332 14.0684C8.53444 14.067 8.53781 14.0642 8.54492 14.0596C8.55271 14.0545 8.56747 14.0459 8.59277 14.0371C8.64511 14.019 8.73755 14 8.88965 14H11.5332C11.7846 14 11.8707 14.0527 11.9248 14.1045C11.9866 14.1636 12.0554 14.2707 12.1387 14.4795L12.2266 14.7236C12.8209 16.7129 13.5637 18.4763 14.2793 19.7529C14.6366 20.3904 14.9962 20.9231 15.3379 21.3037C15.5085 21.4937 15.6866 21.6593 15.8691 21.7803C16.0469 21.8981 16.2688 21.9999 16.5166 22C16.6332 22 16.7893 21.9869 16.9453 21.9131C17.1146 21.833 17.24 21.7028 17.3242 21.5439C17.4683 21.272 17.5 20.8952 17.5 20.46V16.8232Z" stroke="#B8C1CC"/>
</svg>
