<svg width="40" height="41" viewBox="0 0 40 41" fill="none" xmlns="http://www.w3.org/2000/svg">
<rect x="0.5" y="1" width="39" height="39" rx="19.5" stroke="#B8C1CC"/>
<path d="M20.5361 10C23.0181 10 25.3775 10.9149 27.2139 12.5752L27.5742 12.917C29.3338 14.6707 30.3044 16.9769 30.4766 19.3848L30.5 19.8682C30.4924 25.3444 26.0374 29.7812 20.5361 29.7812C18.865 29.7812 17.2608 29.3654 15.792 28.5986L15.6211 28.5088L15.4346 28.5576L10.708 29.7969L11.9463 25.2354L12 25.0352L11.8975 24.8555C11.0611 23.3969 10.5732 21.659 10.5732 19.9268C10.5734 14.4444 15.0305 10.0002 20.5361 10ZM17.3174 14.6143H16.8047C16.6043 14.6142 16.1207 14.6012 15.7471 15.0166L15.6738 15.1055C15.6163 15.1819 15.327 15.4913 15.1143 15.875C14.8838 16.2906 14.6953 16.8474 14.6953 17.5938C14.6953 18.3629 14.9706 19.0838 15.2451 19.6113C15.4837 20.0699 15.7479 20.4272 15.8896 20.5889C16.1005 20.9081 17.8366 23.5555 20.5576 24.6885C21.1544 24.9828 21.7349 25.158 22.0342 25.2773L22.0654 25.2891L22.0986 25.2979C22.7491 25.4599 23.3982 25.4612 23.8984 25.3799L23.8994 25.3809C23.9013 25.3806 23.9034 25.3792 23.9053 25.3789C23.9072 25.3786 23.9092 25.3792 23.9111 25.3789L23.9102 25.3779C24.2656 25.3246 24.7151 25.1213 25.0908 24.875C25.4599 24.633 25.8858 24.2682 26.0537 23.8223C26.1801 23.4865 26.2446 23.1666 26.2666 22.8926C26.2876 22.6302 26.2723 22.373 26.2061 22.1748L26.168 22.0625L26.085 21.9795L26.0156 21.917C25.9439 21.8593 25.8666 21.8143 25.7998 21.7773C25.7072 21.7261 25.5885 21.6661 25.4492 21.5967C25.2765 21.4918 24.9017 21.297 24.5645 21.1289C24.37 21.032 24.1739 20.9375 24.0117 20.8613C23.8624 20.7912 23.7099 20.7219 23.6211 20.6924C23.5397 20.6654 23.3236 20.5843 23.0986 20.6045C22.9675 20.6164 22.8295 20.6613 22.7031 20.7549C22.5808 20.8456 22.493 20.9636 22.4307 21.0879C22.3858 21.1773 22.256 21.357 22.0889 21.5605C21.939 21.7431 21.7942 21.9025 21.7305 21.9678L21.7109 21.959C21.3882 21.7982 20.6573 21.5385 19.6934 20.7158C19.0096 20.0943 18.56 19.4186 18.3936 19.1221L18.4014 19.1143C18.4422 19.0736 18.4815 19.0262 18.5078 18.9932C18.5358 18.9579 18.5705 18.913 18.5986 18.877L18.7676 18.6768C18.977 18.468 19.081 18.2554 19.1543 18.1094C19.2981 17.8225 19.2982 17.5105 19.1543 17.2236L19.1182 17.1514L19.1074 17.1406C19.0909 17.1064 19.0682 17.0567 19.04 16.9922C18.9808 16.8566 18.9044 16.6746 18.8223 16.4746L18.3613 15.3545C18.2289 15.0466 18.0519 14.8058 17.7891 14.6865C17.5583 14.582 17.2797 14.6143 17.3174 14.6143Z" stroke="#B8C1CC"/>
</svg>
