<svg width="25" height="25" viewBox="0 0 25 25" fill="none" xmlns="http://www.w3.org/2000/svg">
<path fill-rule="evenodd" clip-rule="evenodd" d="M12.9248 22.9211C18.8895 22.9211 23.7248 18.0858 23.7248 12.1211C23.7248 6.15642 18.8895 1.32109 12.9248 1.32109C6.96013 1.32109 2.1248 6.15642 2.1248 12.1211C2.1248 18.0858 6.96013 22.9211 12.9248 22.9211ZM12.9248 24.1211C19.5522 24.1211 24.9248 18.7485 24.9248 12.1211C24.9248 5.49368 19.5522 0.121094 12.9248 0.121094C6.29739 0.121094 0.924805 5.49368 0.924805 12.1211C0.924805 18.7485 6.29739 24.1211 12.9248 24.1211Z" fill="#2575ED"/>
<path fill-rule="evenodd" clip-rule="evenodd" d="M21.1909 4.68441L5.44692 20.4283L4.59839 19.5798L20.3423 3.83588L21.1909 4.68441Z" fill="#2575ED"/>
</svg>