<svg width="20" height="25" viewBox="0 0 20 25" fill="none" xmlns="http://www.w3.org/2000/svg">
<path d="M13.3896 21.4584L13.389 21.4583C13.0976 21.4334 12.8812 21.1766 12.906 20.885C12.906 20.885 12.906 20.885 12.9061 20.885L13.9749 8.3179C13.9749 8.31789 13.9749 8.31787 13.9749 8.31785L13.9749 8.3178L14.0247 8.32204C14.0467 8.0579 14.272 7.86185 14.5436 7.88461L13.3896 21.4584ZM13.3896 21.4584C13.4045 21.4594 13.4195 21.4601 13.4345 21.4601C13.7067 21.4601 13.9386 21.2512 13.962 20.9751C13.962 20.9751 13.962 20.9751 13.962 20.9751L15.0306 8.40792L13.3896 21.4584Z" fill="#2575ED" stroke="#2575ED" stroke-width="0.1"/>
<path d="M9.97716 21.46C10.2702 21.46 10.5073 21.2226 10.5073 20.9299V8.3627C10.5073 8.07012 10.2701 7.83281 9.97716 7.83281C9.68417 7.83281 9.44707 8.07012 9.44707 8.3627V20.9299C9.44707 21.2226 9.68416 21.46 9.97716 21.46Z" fill="#2575ED" stroke="#2575ED" stroke-width="0.1"/>
<path d="M6.56681 21.4544L6.56616 21.4544C6.55115 21.4555 6.53637 21.4562 6.52112 21.4562C6.24892 21.4562 6.01702 21.2477 5.99367 20.9712C5.99367 20.9711 5.99367 20.9711 5.99367 20.9711L4.92461 8.40398C4.92461 8.40398 4.92461 8.40397 4.9246 8.40397C4.89971 8.11236 5.11592 7.85555 5.40743 7.83086L6.56681 21.4544ZM6.56681 21.4544C6.85806 21.4295 7.0745 21.1727 7.04959 20.881M6.56681 21.4544L7.04959 20.881M7.04959 20.881L5.98032 8.31397C5.98032 8.31395 5.98032 8.31392 5.98032 8.3139L7.04959 20.881Z" fill="#2575ED" stroke="#2575ED" stroke-width="0.1"/>
<path d="M3.43585 23.6921L3.43585 23.6921L16.4746 23.6872L16.5244 23.692L16.5244 23.692L18.2158 6.1807H18.5556C18.8484 6.1807 19.0855 5.94337 19.0855 5.65062V4.2971C19.0855 3.23186 18.2164 2.36571 17.1487 2.36571H13.1333V0.601182C13.1333 0.308429 12.8962 0.0710937 12.6034 0.0710937H7.35708C7.06408 0.0710937 6.82699 0.308415 6.82699 0.601182V2.36571H2.8064C1.74151 2.36571 0.874805 3.23198 0.874805 4.2971V5.65062C0.874805 5.94338 1.11189 6.1807 1.40489 6.1807H1.73992L3.43585 23.6921ZM7.88696 1.13106H12.0733V2.36571H7.88696V1.13106ZM1.93478 4.2971C1.93478 3.81674 2.32582 3.42568 2.8064 3.42568H17.1487C17.6324 3.42568 18.0255 3.817 18.0255 4.2971V5.12073H1.93478V4.2971ZM17.1511 6.1807L15.5156 23.111H4.44463L2.80467 6.1807H17.1511Z" fill="#2575ED" stroke="#2575ED" stroke-width="0.1"/>
</svg>
