<svg width="25" height="25" viewBox="0 0 25 25" fill="none" xmlns="http://www.w3.org/2000/svg">
<path d="M23.699 8.97211L23.6992 8.97213C23.9114 8.99217 24.115 9.14546 24.1936 9.39715C24.2733 9.65362 24.1958 9.92434 24.0174 10.0878C24.0173 10.0879 24.0173 10.0879 24.0172 10.088L18.7803 14.8798L18.4833 15.1516L18.5689 15.545L20.1129 22.6413C20.1129 22.6414 20.1129 22.6415 20.1129 22.6417C20.1703 22.9071 20.068 23.1665 19.8794 23.3087L19.8788 23.3091C19.6952 23.4479 19.4595 23.4575 19.2684 23.3385C19.2684 23.3384 19.2683 23.3384 19.2683 23.3384C19.2682 23.3384 19.2682 23.3383 19.2682 23.3383L13.2954 19.611L12.9249 19.3797L12.5543 19.6109L6.58018 23.3384L6.57998 23.3386C6.48988 23.3948 6.39232 23.4211 6.29667 23.4211C6.18503 23.4211 6.07182 23.3857 5.9716 23.3097L5.97021 23.3087C5.78166 23.1665 5.67938 22.9071 5.73669 22.6417C5.73672 22.6415 5.73675 22.6414 5.73678 22.6413L7.28078 15.545L7.36638 15.1516L7.06932 14.8798L1.83229 10.0879C1.65398 9.92467 1.57652 9.65334 1.65572 9.39827C1.73517 9.14624 1.93875 8.99267 2.15137 8.97204C2.15149 8.97203 2.15161 8.97202 2.15173 8.972L9.07982 8.31576L9.50127 8.27584L9.66164 7.88406L12.3997 1.1949L12.3998 1.19457C12.4983 0.953544 12.7107 0.821094 12.9248 0.821094C13.1385 0.821094 13.3515 0.953224 13.4514 1.1957C13.4515 1.1958 13.4515 1.19591 13.4515 1.19601L16.1891 7.88406L16.3495 8.27584L16.7709 8.31576L23.699 8.97211Z" stroke="#2575ED" stroke-width="1.4"/>
</svg>
