<svg width="48" height="48" viewBox="0 0 48 48" fill="none" xmlns="http://www.w3.org/2000/svg">
<path d="M48 24.0008C48 36.1223 39.0148 46.1434 27.3423 47.7696C26.2509 47.921 25.1343 48 24.0008 48C22.6925 48 21.4077 47.8957 20.1565 47.6939C8.72789 45.8542 0 35.9458 0 24.0008C0 10.7459 10.7459 0 23.9992 0C37.2524 0 48 10.7459 48 24.0008Z" fill="#1877F2"/>
<path d="M27.3421 19.2703V24.4986H33.8098L32.7857 31.5415H27.3421V47.7679C26.2507 47.9193 25.1341 47.9983 24.0006 47.9983C22.6923 47.9983 21.4075 47.8941 20.1563 47.6923V31.5415H14.1914V24.4986H20.1563V18.1015C20.1563 14.1328 23.3733 10.9141 27.3438 10.9141V10.9174C27.3555 10.9174 27.3656 10.9141 27.3774 10.9141H33.8115V17.0051H29.6073C28.3578 17.0051 27.3438 18.0191 27.3438 19.2686L27.3421 19.2703Z" fill="white"/>
</svg>
