<svg width="37" height="37" viewBox="0 0 37 37" fill="none" xmlns="http://www.w3.org/2000/svg">
    <circle cx="18.5869" cy="18.7305" r="18" fill="#CB39A4"/>
    <path d="M18.5869 13.8789C15.9117 13.8789 13.7354 16.0553 13.7354 18.7305C13.7354 21.4056 15.9117 23.582 18.5869 23.582C21.2621 23.582 23.4385 21.4056 23.4385 18.7305C23.4385 16.0553 21.2621 13.8789 18.5869 13.8789ZM18.5869 22.1758C16.6872 22.1758 15.1416 20.6302 15.1416 18.7305C15.1416 16.8307 16.6872 15.2852 18.5869 15.2852C20.4867 15.2852 22.0322 16.8307 22.0322 18.7305C22.0322 20.6302 20.4867 22.1758 18.5869 22.1758Z" fill="white"/>
    <path d="M22.3582 9.73047H14.8156C11.9325 9.73047 9.58691 12.0761 9.58691 14.9592V22.5017C9.58691 25.3849 11.9325 27.7305 14.8156 27.7305H22.3582C25.2413 27.7305 27.5869 25.3849 27.5869 22.5018V14.9592C27.5869 12.0761 25.2413 9.73047 22.3582 9.73047ZM26.1807 22.5017C26.1807 24.6095 24.4659 26.3242 22.3582 26.3242H14.8156C12.7079 26.3242 10.9932 24.6095 10.9932 22.5018V14.9592C10.9932 12.8515 12.7079 11.1367 14.8156 11.1367H22.3582C24.4659 11.1367 26.1807 12.8515 26.1807 14.9592V22.5017Z" fill="white"/>
    <path d="M23.5088 14.3437C23.8971 14.3437 24.2119 14.029 24.2119 13.6406C24.2119 13.2523 23.8971 12.9375 23.5088 12.9375C23.1205 12.9375 22.8057 13.2523 22.8057 13.6406C22.8057 14.029 23.1205 14.3437 23.5088 14.3437Z" fill="white"/>
    </svg>
    