<svg width="" height="" viewBox="0 0 37 37" fill="none" xmlns="http://www.w3.org/2000/svg">
<path d="M18.7506 15.5451C20.4694 15.5388 21.8383 14.1581 21.832 12.4357C21.8258 10.7124 20.4539 9.34132 18.7344 9.33985C17.0005 9.338 15.6157 10.7345 15.629 12.4732C15.6419 14.1894 17.0263 15.5514 18.7506 15.5451Z" fill="#F2720D"/>
<path d="M18.7305 0.332031C8.78931 0.332031 0.730469 8.39124 0.730469 18.332C0.730469 28.2728 8.78931 36.332 18.7305 36.332C28.6716 36.332 36.7305 28.2728 36.7305 18.332C36.7305 8.39124 28.6716 0.332031 18.7305 0.332031ZM18.7562 5.80587C22.2623 5.81545 25.0764 8.68329 25.0584 12.2281C25.0407 15.691 22.1806 18.4978 18.6804 18.486C15.2159 18.4742 12.3746 15.6019 12.3952 12.1319C12.4147 8.624 15.2575 5.7963 18.7562 5.80587ZM25.8575 20.9771C25.0823 21.7729 24.1491 22.3489 23.1127 22.7507C22.1331 23.1304 21.0595 23.3216 19.9966 23.449C20.1576 23.6236 20.2331 23.7094 20.3333 23.8096C21.7755 25.2595 23.2247 26.7021 24.6621 28.1561C25.1519 28.6518 25.2539 29.2661 24.9843 29.8417C24.6901 30.4715 24.0297 30.8854 23.3819 30.8409C22.9717 30.8125 22.6516 30.6089 22.3677 30.3227C21.279 29.2274 20.1697 28.1517 19.1039 27.0357C18.7927 26.7109 18.6439 26.7728 18.3695 27.0549C17.2746 28.1826 16.1617 29.2922 15.0424 30.396C14.5397 30.8917 13.9416 30.9816 13.3583 30.698C12.7384 30.3982 12.3444 29.7651 12.3746 29.1283C12.3959 28.6989 12.6073 28.3697 12.9027 28.0758C14.3305 26.6509 15.754 25.2216 17.1778 23.7934C17.2724 23.6987 17.3601 23.5982 17.4974 23.4508C15.5555 23.2479 13.8043 22.7699 12.305 21.5976C12.1186 21.4518 11.9267 21.3111 11.7573 21.1476C11.1007 20.5174 11.0348 19.7952 11.5537 19.052C11.9982 18.4156 12.7436 18.2455 13.5188 18.6112C13.6691 18.6815 13.812 18.7707 13.949 18.8649C16.7428 20.7848 20.5811 20.8375 23.386 18.9508C23.6637 18.7386 23.9609 18.5641 24.3052 18.476C24.974 18.3037 25.5986 18.5501 25.9574 19.1356C26.368 19.8048 26.3632 20.4574 25.8575 20.9771Z" fill="#F2720D"/>
</svg>
