<svg width="21" height="21" viewBox="0 0 21 21" fill="none" xmlns="http://www.w3.org/2000/svg">
<g clip-path="">
<path d="M19.6889 12.2442C19.8327 11.5924 19.9088 10.9188 19.9088 10.2258C19.9088 5.0322 15.6395 0.820974 10.3716 0.820974C9.81605 0.820974 9.27109 0.868475 8.74117 0.958466C7.8889 0.428544 6.88027 0.121094 5.79921 0.121094C2.74345 0.121094 0.267578 2.56319 0.267578 5.57647C0.267578 6.58256 0.54565 7.52489 1.02745 8.33542C0.900601 8.94593 0.834361 9.57834 0.834361 10.2258C0.834361 15.4212 5.10373 19.4756 10.371 19.4756C10.9678 19.4756 11.5515 19.4212 12.117 19.3181C12.8962 19.7305 13.7861 20.1211 14.7322 20.1211C17.7874 20.1211 20.2633 17.6796 20.2633 14.6663C20.2633 13.7971 20.0564 12.9741 19.6889 12.2442Z" fill="#00AFF0"/>
<path d="M14.7212 14.065C14.3532 14.5881 13.8145 14.9992 13.1053 15.2948C12.396 15.5929 11.5561 15.7404 10.5844 15.7404C9.41902 15.7404 8.45788 15.5379 7.69986 15.1323C7.16369 14.8411 6.72692 14.4512 6.39071 13.965C6.05573 13.4788 5.8877 13.0052 5.8877 12.5446C5.8877 12.2784 5.98833 12.0497 6.18952 11.8603C6.39071 11.6684 6.64757 11.5741 6.95818 11.5741C7.21064 11.5741 7.42495 11.6472 7.59868 11.7966C7.77365 11.9447 7.92302 12.164 8.04548 12.4558C8.19608 12.8027 8.35794 13.092 8.53353 13.3238C8.70726 13.5556 8.95348 13.7481 9.26965 13.8987C9.58712 14.048 10.0039 14.1242 10.5188 14.1242C11.2275 14.1242 11.8036 13.973 12.2473 13.6687C12.6897 13.3656 12.9122 12.985 12.9122 12.5307C12.9122 12.1707 12.7922 11.8764 12.5534 11.6533C12.3141 11.4284 12.0054 11.2565 11.6267 11.1384C11.2486 11.0191 10.7424 10.8928 10.1076 10.7597C9.25956 10.5779 8.54904 10.3629 7.97793 10.1192C7.40614 9.87361 6.95124 9.54056 6.61627 9.11875C6.28006 8.69509 6.11257 8.17018 6.11257 7.5434C6.11257 6.94477 6.28939 6.41423 6.64434 5.94993C6.99868 5.48502 7.51048 5.12821 8.18283 4.87821C8.85395 4.62829 9.64389 4.50391 10.5506 4.50391C11.2755 4.50391 11.9029 4.58703 12.4322 4.75136C12.9615 4.91762 13.3995 5.13755 13.7482 5.41191C14.0975 5.68628 14.353 5.97368 14.5137 6.2755C14.6749 6.57547 14.7555 6.87167 14.7555 7.1566C14.7555 7.4184 14.6555 7.65591 14.4543 7.86527C14.2531 8.07525 14.0019 8.18082 13.7013 8.18082C13.4269 8.18082 13.2189 8.11705 13.0764 7.9915C12.9339 7.86527 12.7796 7.65907 12.6139 7.37221C12.3983 6.96227 12.1415 6.64233 11.8403 6.413C11.5391 6.18304 11.0567 6.06807 10.3905 6.06807C9.77376 6.06807 9.27507 6.19183 8.89637 6.44237C8.51767 6.69107 8.32774 6.99227 8.32774 7.34283C8.32774 7.55905 8.39336 7.74775 8.52144 7.90584C8.64953 8.06516 8.82704 8.19956 9.05384 8.31268C9.27816 8.42642 9.50688 8.51518 9.73745 8.58073C9.96802 8.64512 10.3499 8.7382 10.8823 8.86196C11.5471 9.00508 12.1502 9.16378 12.6901 9.33628C13.2294 9.5094 13.6893 9.71999 14.068 9.96553C14.4461 10.213 14.7423 10.5267 14.9542 10.9054C15.166 11.2828 15.2729 11.7458 15.2729 12.2946C15.2731 12.9508 15.0881 13.5413 14.7212 14.065Z" fill="white"/>
</g>
<defs>
<clipPath id="clip0">
<rect width="20" height="20" fill="white" transform="translate(0.264648 0.121094)"/>
</clipPath>
</defs>
</svg>
