<svg width="" height="" viewBox="0 0 36 37" fill="none" xmlns="http://www.w3.org/2000/svg">
<path d="M18 36.3398C27.9411 36.3398 36 28.281 36 18.3398C36 8.39872 27.9411 0.339844 18 0.339844C8.05888 0.339844 0 8.39872 0 18.3398C0 28.281 8.05888 36.3398 18 36.3398Z" fill="#55ACEE"/>
<path d="M29.0249 13.2754C28.2536 13.6175 27.4238 13.8488 26.5536 13.9521C27.4421 13.4198 28.1239 12.5775 28.4458 11.5723C27.6144 12.0654 26.6932 12.4232 25.7136 12.616C24.9287 11.7802 23.8105 11.2578 22.5723 11.2578C20.1966 11.2578 18.2698 13.1846 18.2698 15.5603C18.2698 15.8976 18.308 16.2258 18.3818 16.5409C14.806 16.3615 11.6355 14.6487 9.51333 12.0449C9.14305 12.6802 8.93064 13.4198 8.93064 14.2082C8.93064 15.7005 9.69077 17.018 10.8446 17.7894C10.1397 17.7672 9.47579 17.5738 8.89599 17.2506C8.89567 17.2689 8.89567 17.2872 8.89567 17.3052C8.89567 19.3899 10.3794 21.1286 12.3472 21.5236C11.9866 21.6225 11.6057 21.6748 11.2139 21.6748C10.9361 21.6748 10.6669 21.6481 10.4044 21.5981C10.9518 23.307 12.5404 24.551 14.4236 24.586C12.9508 25.7401 11.0959 26.4278 9.07952 26.4278C8.73299 26.4278 8.38966 26.4076 8.05371 26.3674C9.95677 27.5887 12.2189 28.3007 14.6485 28.3007C22.5624 28.3007 26.8902 21.7447 26.8902 16.0586C26.8902 15.8722 26.886 15.6864 26.8777 15.5022C27.719 14.8958 28.4483 14.1382 29.0249 13.2754Z" fill="#F1F2F2"/>
</svg>
