<svg width="21" height="23" viewBox="0 0 21 23" fill="none" xmlns="http://www.w3.org/2000/svg">
<path d="M19.8714 12.8572C20.5223 7.33734 19.5587 3.85249 17.8205 2.2763L17.8214 2.27538C15.0159 -0.416325 5.54134 -0.814723 2.18496 2.39628C0.677683 3.96698 0.146772 6.27219 0.0885896 9.12601C0.0304076 11.9807 -0.0386836 17.3284 4.9077 18.7792H4.91224L4.9077 20.9946C4.9077 20.9946 4.87406 21.8922 5.44315 22.0726C6.09406 22.2851 6.38861 21.8684 8.41316 19.4322C11.7986 19.728 14.3986 19.0503 14.6941 18.9513C15.3777 18.7205 19.2459 18.2049 19.8714 12.8572ZM8.7468 17.8734C8.7468 17.8734 6.60407 20.5651 5.9377 21.2639C5.71952 21.491 5.48043 21.47 5.48406 21.0194C5.48406 20.7235 5.50043 17.3413 5.50043 17.3413C1.30678 16.1305 1.55405 11.5768 1.5995 9.1947C1.64496 6.81163 2.07769 4.85994 3.35406 3.54568C6.29861 0.764217 14.605 1.38609 16.7214 3.38998C19.3087 5.7007 18.3877 12.2289 18.3932 12.4515C17.8614 16.9154 14.7268 17.1984 14.1505 17.3916C13.9041 17.4741 11.6177 18.0666 8.7468 17.8734Z" fill="#8E24AA"/>
<path d="M5.20898 21.4791V18.1016H9.06275L5.97974 21.8291H5.51728L5.20898 21.4791Z" fill="#8E24AA"/>
<rect x="1.03369" y="1.04297" width="17.5053" height="17.4513" rx="5" fill="#8E24AA"/>
<path d="M9.93242 4.07031C9.58242 4.07031 9.58242 4.61983 9.93242 4.62441C12.6479 4.64547 14.8843 6.55229 14.9088 10.05C14.9088 10.419 15.4452 10.4145 15.4406 10.0454H15.4397C15.4106 6.27662 12.9688 4.09138 9.93242 4.07031Z" fill="white"/>
<path d="M13.5037 9.47001C13.4955 9.83452 14.031 9.85192 14.0355 9.48283C14.0801 7.40475 12.8083 5.69301 10.4182 5.51258C10.0682 5.48694 10.0319 6.04103 10.381 6.06668C12.4537 6.22512 13.5455 7.6502 13.5037 9.47001Z" fill="white"/>
<path d="M12.9314 11.832C12.4823 11.5701 12.0251 11.7331 11.836 11.9905L11.4405 12.5061C11.2396 12.7681 10.8641 12.7333 10.8641 12.7333C8.12413 12.0033 7.3914 9.1147 7.3914 9.1147C7.3914 9.1147 7.35777 8.72362 7.60868 8.51389L8.10322 8.10176C8.3505 7.90393 8.50686 7.42768 8.25504 6.95968C7.58231 5.73518 7.13049 5.31297 6.90049 4.98875C6.65867 4.68377 6.29504 4.61508 5.91685 4.82115H5.90867C5.12231 5.28458 4.26139 6.15189 4.53685 7.04486C5.00685 7.98636 5.87049 10.9876 8.62322 13.2553C9.91686 14.3278 11.9641 15.4268 12.8332 15.6805L12.8414 15.6933C13.6978 15.9809 14.5305 15.0797 14.9751 14.2637V14.2572C15.1723 13.8625 15.1069 13.4888 14.8187 13.2443C14.3078 12.7424 13.5369 12.1883 12.9314 11.832Z" fill="white"/>
<path d="M10.7928 7.55468C11.6664 7.60597 12.0901 8.06573 12.1355 9.00998C12.1519 9.37907 12.6837 9.35343 12.6674 8.98434C12.6092 7.75159 11.971 7.0647 10.8219 7.00059C10.4719 6.97952 10.4392 7.53362 10.7928 7.55468Z" fill="white"/>
</svg>
