<svg width="" height="" viewBox="0 0 21 21" fill="none" xmlns="http://www.w3.org/2000/svg">
<g clip-path="">
<path d="M10.8115 20.3086C16.3344 20.3086 20.8115 15.8314 20.8115 10.3086C20.8115 4.78575 16.3344 0.308594 10.8115 0.308594C5.28868 0.308594 0.811523 4.78575 0.811523 10.3086C0.811523 15.8314 5.28868 20.3086 10.8115 20.3086Z" fill="#4D76A1"/>
<path fill-rule="evenodd" clip-rule="evenodd" d="M10.4337 14.6939H11.2185C11.2185 14.6939 11.4556 14.6679 11.5767 14.5374C11.6881 14.4176 11.6845 14.1927 11.6845 14.1927C11.6845 14.1927 11.6692 13.1395 12.158 12.9844C12.6398 12.8316 13.2585 14.0023 13.9143 14.4524C14.4103 14.793 14.7871 14.7183 14.7871 14.7183L16.5406 14.6939C16.5406 14.6939 17.458 14.6374 17.023 13.9162C16.9874 13.8572 16.7697 13.3826 15.7192 12.4076C14.6197 11.387 14.767 11.5521 16.0914 9.78679C16.8981 8.71171 17.2205 8.05536 17.1198 7.77424C17.0237 7.5065 16.4305 7.57727 16.4305 7.57727L14.4561 7.58957C14.4561 7.58957 14.3097 7.5696 14.2012 7.63449C14.0951 7.69813 14.0268 7.84644 14.0268 7.84644C14.0268 7.84644 13.7143 8.67837 13.2976 9.38589C12.4184 10.8788 12.0669 10.9576 11.9232 10.8649C11.589 10.6489 11.6724 9.99696 11.6724 9.53384C11.6724 8.08709 11.8918 7.48386 11.2451 7.3277C11.0305 7.27583 10.8725 7.2416 10.3237 7.23608C9.61919 7.22877 9.02291 7.23822 8.68528 7.40364C8.46068 7.51363 8.28741 7.75873 8.39294 7.77282C8.52342 7.79029 8.81898 7.8525 8.97567 8.06588C9.17799 8.34111 9.17086 8.95931 9.17086 8.95931C9.17086 8.95931 9.28709 10.6624 8.89937 10.874C8.63323 11.0191 8.26816 10.7228 7.48435 9.36842C7.08273 8.67463 6.77951 7.90776 6.77951 7.90776C6.77951 7.90776 6.72104 7.76444 6.61676 7.68779C6.4902 7.59491 6.31336 7.56532 6.31336 7.56532L4.43718 7.57762C4.43718 7.57762 4.15553 7.58547 4.05214 7.70793C3.96016 7.81685 4.04483 8.04217 4.04483 8.04217C4.04483 8.04217 5.51369 11.4787 7.17685 13.2104C8.70186 14.7982 10.4337 14.6939 10.4337 14.6939Z" fill="white"/>
</g>
<defs>
<clipPath id="clip0">
<rect width="20" height="20" fill="white" transform="translate(0.811523 0.308594)"/>
</clipPath>
</defs>
</svg>
