<svg width="48" height="48" viewBox="0 0 48 48" fill="none" xmlns="http://www.w3.org/2000/svg">
<rect width="48" height="48" rx="24" fill="#0077FF"/>
<path fill-rule="evenodd" clip-rule="evenodd" d="M15.2737 15.2737C13.8462 16.7012 13.8462 18.9988 13.8462 23.5939V24.4062C13.8462 29.0013 13.8462 31.2988 15.2737 32.7264C16.7012 34.1539 18.9988 34.1539 23.5939 34.1539H24.4062C29.0013 34.1539 31.2988 34.1539 32.7264 32.7264C34.1539 31.2988 34.1539 29.0013 34.1539 24.4062V23.5939C34.1539 18.9988 34.1539 16.7012 32.7264 15.2737C31.2988 13.8462 29.0013 13.8462 24.4062 13.8462H23.5939C18.9988 13.8462 16.7012 13.8462 15.2737 15.2737ZM17.3539 20.4462C17.4628 25.7288 20.2427 28.9016 24.8246 28.9016H25.0904V25.8924C26.7592 26.0614 28.0036 27.2938 28.5116 28.9016H30.9176C30.2649 26.4964 28.5726 25.1635 27.5208 24.6554C28.5718 24.0271 30.0592 22.5132 30.4096 20.4462H28.2206C27.7614 22.1271 26.395 23.6523 25.0896 23.797V20.4462H22.8657V26.3078C21.5124 25.9696 19.7469 24.3267 19.6746 20.4462H17.3539Z" fill="white"/>
</svg>
