<svg width="31" height="31" viewBox="0 0 31 31" fill="none" xmlns="http://www.w3.org/2000/svg">
<path d="M15.0669 30.9766C23.3512 30.9766 30.0669 24.2608 30.0669 15.9766C30.0669 7.69229 23.3512 0.976562 15.0669 0.976562C6.78262 0.976562 0.0668945 7.69229 0.0668945 15.9766C0.0668945 24.2608 6.78262 30.9766 15.0669 30.9766Z" fill="#DADADA"/>
<path d="M17.0543 21.4437L17.0537 21.4437C16.8722 21.4282 16.7375 21.2683 16.753 21.0867M17.0543 21.4437L17.7289 13.505C17.5706 13.4917 17.4391 13.606 17.4263 13.7601L17.3765 13.7559L17.3765 13.7559C17.3765 13.756 17.3765 13.756 17.3765 13.756L16.753 21.0867M17.0543 21.4437C17.0633 21.4444 17.0726 21.4448 17.082 21.4448C17.2515 21.4448 17.3959 21.3147 17.4104 21.1428L17.0543 21.4437ZM16.753 21.0867L16.8028 21.091L16.753 21.0867L16.753 21.0867Z" fill="#9E9E9E" stroke="#9E9E9E" stroke-width="0.1"/>
<path d="M15.0652 21.4447C15.2476 21.4447 15.3953 21.2969 15.3953 21.1147V13.7838C15.3953 13.6017 15.2476 13.4539 15.0652 13.4539C14.8828 13.4539 14.7352 13.6017 14.7352 13.7838V21.1147C14.7352 21.2969 14.8828 21.4447 15.0652 21.4447Z" fill="#9E9E9E" stroke="#9E9E9E" stroke-width="0.1"/>
<path d="M13.077 21.4398L13.077 21.4398C13.0679 21.4405 13.0588 21.4409 13.0493 21.4409C12.8798 21.4409 12.7354 21.3111 12.7208 21.1389C12.7208 21.1389 12.7208 21.1389 12.7208 21.1388L12.0972 13.8081C12.0972 13.8081 12.0972 13.8081 12.0972 13.8081C12.0817 13.6265 12.2163 13.4666 12.3979 13.4512C12.5806 13.4357 12.7394 13.5703 12.7546 13.752L12.7546 13.752L12.7047 13.7562L12.7546 13.7521L13.077 21.4398ZM13.077 21.4398L13.0777 21.4397C13.2591 21.4242 13.3938 21.2644 13.3783 21.0828M13.077 21.4398L13.3783 21.0828M13.3783 21.0828L13.3285 21.087L13.3783 21.0828L13.3783 21.0828Z" fill="#9E9E9E" stroke="#9E9E9E" stroke-width="0.1"/>
<path d="M11.2287 22.7282L11.2287 22.7283L18.8554 22.7234L18.9051 22.7282L18.9052 22.7282L19.89 12.5322H20.0692C20.2516 12.5322 20.3992 12.3844 20.3992 12.2021V11.4126C20.3992 10.7796 19.8828 10.2651 19.2486 10.2651H16.9271V9.25661C16.9271 9.07435 16.7795 8.92656 16.5972 8.92656H13.5368C13.3544 8.92656 13.2068 9.07433 13.2068 9.25661V10.2651H10.8823C10.2496 10.2651 9.73467 10.7797 9.73467 11.4126V12.2021C9.73467 12.3844 9.88229 12.5322 10.0647 12.5322H10.2412L11.2287 22.7282ZM13.8667 9.58654H16.2671V10.2651H13.8667V9.58654ZM10.3946 11.4126C10.3946 11.1439 10.6134 10.9251 10.8823 10.9251H19.2486C19.5194 10.9251 19.7392 11.1441 19.7392 11.4126V11.8722H10.3946V11.4126ZM19.227 12.5322L18.277 22.3665H11.8568L10.9042 12.5322H19.227Z" fill="#9E9E9E" stroke="#9E9E9E" stroke-width="0.1"/>
</svg>
