<svg width="15" height="15" viewBox="0 0 15 15" fill="none" xmlns="http://www.w3.org/2000/svg">
<g clip-path="url(#clip0)">
<path d="M14.1806 7.57986C14.0555 7.40877 11.0755 3.39062 7.26946 3.39062C3.46345 3.39062 0.483305 7.40877 0.358371 7.5797C0.239918 7.74201 0.239918 7.96215 0.358371 8.12447C0.483305 8.29556 3.46345 12.3137 7.26946 12.3137C11.0755 12.3137 14.0555 8.29553 14.1806 8.1246C14.2992 7.96232 14.2992 7.74201 14.1806 7.57986ZM7.26946 11.3906C4.46593 11.3906 2.03777 8.72371 1.31899 7.85185C2.03684 6.97923 4.45991 4.3137 7.26946 4.3137C10.0729 4.3137 12.5009 6.98015 13.2199 7.85248C12.5021 8.72507 10.079 11.3906 7.26946 11.3906Z" fill="#9E9E9E"/>
<path d="M7.26973 5.08203C5.7428 5.08203 4.50049 6.32434 4.50049 7.85127C4.50049 9.37821 5.7428 10.6205 7.26973 10.6205C8.79666 10.6205 10.039 9.37821 10.039 7.85127C10.039 6.32434 8.79666 5.08203 7.26973 5.08203ZM7.26973 9.69742C6.25172 9.69742 5.42359 8.86926 5.42359 7.85127C5.42359 6.83329 6.25175 6.00513 7.26973 6.00513C8.28771 6.00513 9.11587 6.83329 9.11587 7.85127C9.11587 8.86926 8.28774 9.69742 7.26973 9.69742Z" fill="#9E9E9E"/>
</g>
<defs>
<clipPath id="clip0">
<rect width="14" height="14" fill="white" transform="translate(0.269531 0.851562)"/>
</clipPath>
</defs>
</svg>
