<svg width="15" height="15" viewBox="0 0 15 15" fill="none" xmlns="http://www.w3.org/2000/svg">
<path d="M12.748 0.371094H1.76485C0.932999 0.371094 0.256348 1.04774 0.256348 1.87959V9.92517C0.256348 10.7569 0.932999 11.4336 1.76485 11.4336H5.24562L6.39833 13.7391C6.59914 14.1407 6.91188 14.3711 7.25635 14.3711C7.60081 14.3711 7.91356 14.1407 8.11436 13.7391L9.26718 11.4336H12.748C13.5797 11.4336 14.2563 10.7569 14.2563 9.92517V1.87959C14.2563 1.04774 13.5797 0.371094 12.748 0.371094V0.371094ZM13.436 9.92517C13.436 10.3046 13.1273 10.6133 12.748 10.6133H9.01372C8.85831 10.6133 8.71635 10.701 8.64682 10.84L7.38068 13.3722C7.32962 13.4743 7.28166 13.5245 7.25635 13.5437C7.23103 13.5245 7.18307 13.4743 7.13202 13.3722L5.86588 10.84C5.79645 10.701 5.65439 10.6133 5.49908 10.6133H1.76485C1.38535 10.6133 1.07666 10.3046 1.07666 9.92517V1.87959C1.07666 1.50009 1.38535 1.19141 1.76485 1.19141H12.748C13.1273 1.19141 13.436 1.50009 13.436 1.87959V9.92517Z" fill="#9E9E9E"/>
</svg>
