<svg width="15" height="15" viewBox="0 0 15 15" fill="none" xmlns="http://www.w3.org/2000/svg">
<path d="M14.4729 11.3465L12.4495 9.32216C12.1777 9.05181 11.8138 8.90285 11.425 8.90285C11.0203 8.90285 10.6383 9.06218 10.3494 9.35124L9.56172 10.1387C8.94967 9.79852 8.13619 9.33062 7.2916 8.48604C6.448 7.64215 5.98005 6.83104 5.63811 6.21569L6.42652 5.42786C7.01268 4.84048 7.02467 3.89813 6.45333 3.32732L4.43028 1.30421C4.15929 1.03247 3.79541 0.882812 3.40558 0.882812C3.00996 0.882812 2.6357 1.03513 2.3485 1.31237C2.17475 1.4523 1.30283 2.222 0.977868 3.80935C0.522882 6.03117 1.56826 8.16889 4.58613 11.188C7.95734 14.5581 10.8353 14.8201 11.6371 14.8201C11.804 14.8201 11.9048 14.8098 11.9316 14.8067C13.5039 14.6224 14.0668 13.9241 14.4778 13.4143C15.0104 12.7536 15.0086 11.8841 14.4729 11.3465ZM13.8015 12.869C13.4151 13.3482 13.0503 13.8008 11.8306 13.9438C11.8299 13.9438 11.7632 13.9513 11.6371 13.9513C10.9198 13.9513 8.33548 13.7077 5.20044 10.5737C2.41742 7.78948 1.44061 5.88018 1.82894 3.98356C2.11238 2.59903 2.86488 2.01055 2.89412 1.98819L2.92007 1.96902L2.94283 1.9462C3.06845 1.8207 3.23276 1.75155 3.40552 1.75155C3.56282 1.75155 3.7083 1.81051 3.81556 1.91811L5.83908 3.94169C6.0719 4.17427 6.05951 4.56567 5.8118 4.81389L4.92019 5.70475L4.90554 5.7201C4.67318 5.97603 4.70051 6.3219 4.82851 6.54714C5.19784 7.21363 5.70373 8.12644 6.67718 9.10017C7.64738 10.0704 8.55886 10.5759 9.2235 10.9445C9.29004 10.9819 9.42742 11.0445 9.59937 11.0445C9.80242 11.0445 9.98885 10.9586 10.1269 10.8019L10.9636 9.96537C11.0886 9.84039 11.2523 9.77153 11.4249 9.77153C11.5825 9.77153 11.7288 9.83066 11.8358 9.93711L13.8579 11.9601C14.1148 12.2179 14.0087 12.612 13.8015 12.869Z" fill="#9E9E9E"/>
</svg>
