<svg width="15" height="15" viewBox="0 0 15 15" fill="none" xmlns="http://www.w3.org/2000/svg">
<path d="M13.5325 6.10591L13.5327 6.10593C13.6179 6.11397 13.7069 6.17657 13.7423 6.29012L14.2196 6.14137L13.7422 6.28982C13.7785 6.4065 13.7422 6.52724 13.6649 6.59796L10.61 9.39317L10.3978 9.58732L10.459 9.86836L11.3596 14.0077C11.3597 14.0078 11.3597 14.008 11.3597 14.0081C11.3858 14.1293 11.3382 14.2439 11.2579 14.3045L11.2574 14.3048C11.1805 14.363 11.0842 14.3665 11.0051 14.3173C11.0051 14.3173 11.0051 14.3172 11.0051 14.3172C11.0051 14.3172 11.005 14.3172 11.005 14.3172L7.52078 12.1429L7.2561 11.9777L6.9914 12.1429L3.50641 14.3172L3.50627 14.3173C3.46836 14.341 3.42828 14.3516 3.38954 14.3516C3.34422 14.3516 3.29766 14.3374 3.25528 14.3052L3.25429 14.3045C3.17393 14.2439 3.12629 14.1293 3.15245 14.008C3.15247 14.0079 3.15249 14.0078 3.1525 14.0077L4.05318 9.86836L4.11433 9.58732L3.90213 9.39317L0.847116 6.59788C0.770054 6.52736 0.733848 6.4064 0.769707 6.29063C0.805625 6.17694 0.894682 6.11422 0.980071 6.10587C0.98017 6.10586 0.980269 6.10585 0.980369 6.10584L5.02173 5.72305L5.32277 5.69453L5.43732 5.41469L7.03454 1.51268L7.03464 1.51244C7.0787 1.40464 7.17016 1.35156 7.25607 1.35156C7.34164 1.35156 7.43357 1.4044 7.47844 1.51317C7.47849 1.51327 7.47853 1.51337 7.47857 1.51348L9.07547 5.41469L9.19001 5.69453L9.49104 5.72304L13.5325 6.10591Z" stroke="#9E9E9E"/>
</svg>
