<svg width="31" height="31" viewBox="0 0 31 31" fill="none" xmlns="http://www.w3.org/2000/svg">
<path d="M15.0669 30.9766C23.3512 30.9766 30.0669 24.2608 30.0669 15.9766C30.0669 7.69229 23.3512 0.976562 15.0669 0.976562C6.78262 0.976562 0.0668945 7.69229 0.0668945 15.9766C0.0668945 24.2608 6.78262 30.9766 15.0669 30.9766Z" fill="#DADADA"/>
<g clip-path="url(#clip0)">
<path d="M21.6658 15.8172C21.443 15.8172 21.2647 15.9955 21.2647 16.2183V19.8669C21.2647 20.8593 20.4565 21.6644 19.4671 21.6644H10.6666C9.67428 21.6644 8.8691 20.8563 8.8691 19.8669V16.1589C8.8691 15.9361 8.69083 15.7578 8.468 15.7578C8.24516 15.7578 8.06689 15.9361 8.06689 16.1589V19.8669C8.06689 21.302 9.23455 22.4666 10.6666 22.4666H19.4671C20.9022 22.4666 22.0669 21.299 22.0669 19.8669V16.2183C22.0669 15.9985 21.8886 15.8172 21.6658 15.8172Z" fill="#9E9E9E"/>
<path d="M12.7998 12.7239L14.6657 10.858V18.9959C14.6657 19.2188 14.8439 19.397 15.0668 19.397C15.2896 19.397 15.4679 19.2188 15.4679 18.9959V10.858L17.3338 12.7239C17.411 12.8011 17.515 12.8427 17.616 12.8427C17.72 12.8427 17.821 12.8041 17.8983 12.7239C18.0557 12.5664 18.0557 12.3138 17.8983 12.1564L15.349 9.60713C15.2748 9.53285 15.1708 9.48828 15.0668 9.48828C14.9598 9.48828 14.8588 9.52988 14.7845 9.60713L12.2353 12.1564C12.0778 12.3138 12.0778 12.5664 12.2353 12.7239C12.3898 12.8783 12.6453 12.8783 12.7998 12.7239Z" fill="#9E9E9E"/>
</g>
<defs>
<clipPath id="clip0">
<rect width="14" height="14" fill="white" transform="translate(8.06689 8.97656)"/>
</clipPath>
</defs>
</svg>
